M48
INCH
T1C0.0157
T2C0.0197
T3C0.0256
T4C0.0276
T5C0.0579
T6C0.0984
T7C0.0984
%
G90
G05
T1
X2.75Y-3.5938
X2.9375Y-3.0312
X3.0625Y-1.8438
X3.185Y-2.035
X3.25Y-3.0938
X3.2669Y-1.98
X3.6125Y-2.4875
X3.6875Y-2.3438
X3.7699Y-2.8324
X3.8125Y-3.0625
X3.875Y-2.1562
X3.875Y-3.0312
X4.0Y-3.125
X4.1875Y-3.3438
X4.625Y-3.125
X5.375Y-3.125
X5.625Y-4.5
X5.8438Y-3.6562
X5.9062Y-4.8125
X5.9375Y-3.7812
X5.9688Y-2.9062
X6.6875Y-3.7812
X7.1875Y-3.375
X7.2812Y-2.5938
X7.3125Y-2.375
X7.325Y-3.2375
X7.4062Y-2.2812
X7.5938Y-2.4062
X7.6562Y-2.0625
X7.6562Y-2.0625
X7.6562Y-2.4062
X7.9688Y-3.0938
X7.9907Y-3.0
X8.04Y-2.305
X8.1Y-1.76
X8.125Y-2.075
X8.125Y-2.8438
X8.1562Y-3.0
X8.375Y-4.5
X8.4688Y-2.8739
X8.4688Y-3.6875
X8.5312Y-3.6875
X8.5312Y-3.875
X8.6875Y-5.125
X9.125Y-3.175
X9.75Y-2.8438
X9.875Y-3.175
X9.9219Y-4.5781
X10.625Y-3.175
X11.375Y-3.175
X12.125Y-3.175
X13.4062Y-2.9688
T2
X3.4168Y-2.6737
X3.4434Y-2.6097
X3.4434Y-2.7377
X3.5074Y-2.5832
X3.5074Y-2.7643
X3.5714Y-2.6097
X3.5714Y-2.7377
X3.5979Y-2.6737
T3
X12.6955Y-2.7675
X12.7005Y-2.5825
X12.7534Y-2.5832
X12.7534Y-2.7643
X12.8105Y-2.5825
X12.8105Y-2.7675
T5
X6.6625Y-3.3375
X6.9125Y-3.2375
X12.475Y-4.8375
X12.725Y-4.7375
X4.975Y-1.8375
X5.225Y-1.7375
X2.725Y-4.0875
X2.975Y-3.9875
X5.4437Y-4.8375
X5.6937Y-4.7375
X7.225Y-1.8375
X7.475Y-1.7375
X12.1Y-2.5875
X12.35Y-2.4875
X6.475Y-4.0875
X6.725Y-3.9875
X10.225Y-4.0875
X10.475Y-3.9875
X6.1Y-2.5875
X6.35Y-2.4875
X7.5062Y-3.3375
X7.7562Y-3.2375
X13.225Y-1.8375
X13.475Y-1.7375
X7.6Y-2.5875
X7.85Y-2.4875
X10.0375Y-3.3375
X10.2875Y-3.2375
X3.6625Y-3.3375
X3.9125Y-3.2375
X2.725Y-4.8375
X2.975Y-4.7375
X9.1Y-2.5875
X9.35Y-2.4875
X5.9125Y-3.3375
X6.1625Y-3.2375
X13.225Y-4.0875
X13.475Y-3.9875
X11.725Y-4.8375
X11.975Y-4.7375
X4.225Y-1.8375
X4.475Y-1.7375
X13.0375Y-3.3375
X13.2875Y-3.2375
X4.5062Y-4.8375
X4.7562Y-4.7375
X5.725Y-4.0875
X5.975Y-3.9875
X2.8188Y-3.3375
X3.0688Y-3.2375
X9.2875Y-3.3375
X9.5375Y-3.2375
X3.475Y-1.8375
X3.725Y-1.7375
X10.6Y-2.5875
X10.85Y-2.4875
X9.475Y-4.0875
X9.725Y-3.9875
X9.475Y-1.8375
X9.725Y-1.7375
X8.725Y-4.0875
X8.975Y-3.9875
X5.1625Y-3.3375
X5.4125Y-3.2375
X12.475Y-4.0875
X12.725Y-3.9875
X4.6Y-2.5875
X4.85Y-2.4875
X10.975Y-4.8375
X11.225Y-4.7375
X8.725Y-1.8375
X8.975Y-1.7375
X8.5375Y-3.3375
X8.7875Y-3.2375
X3.85Y-2.5875
X4.1Y-2.4875
X12.2875Y-3.3375
X12.5375Y-3.2375
X3.5688Y-4.8375
X3.8188Y-4.7375
X4.975Y-4.0875
X5.225Y-3.9875
X6.475Y-1.8375
X6.725Y-1.7375
X6.85Y-2.5875
X7.1Y-2.4875
X13.0375Y-2.5875
X13.2875Y-2.4875
X12.85Y-1.8375
X13.1Y-1.7375
X2.9125Y-3.3375
X3.1625Y-3.2375
X11.725Y-4.0875
X11.975Y-3.9875
X9.85Y-2.5875
X10.1Y-2.4875
X13.1312Y-3.3375
X13.3812Y-3.2375
X2.725Y-1.8375
X2.975Y-1.7375
X10.975Y-1.8375
X11.225Y-1.7375
X11.35Y-2.5875
X11.6Y-2.4875
X4.225Y-4.0875
X4.475Y-3.9875
X7.975Y-4.0875
X8.225Y-3.9875
X10.225Y-4.8375
X10.475Y-4.7375
X7.975Y-1.8375
X8.225Y-1.7375
X7.4125Y-3.3375
X7.6625Y-3.2375
X9.1Y-4.8375
X9.35Y-4.7375
X11.5375Y-3.3375
X11.7875Y-3.2375
X13.225Y-4.8375
X13.475Y-4.7375
X11.725Y-1.8375
X11.975Y-1.7375
X5.725Y-1.8375
X5.975Y-1.7375
X4.4125Y-3.3375
X4.6625Y-3.2375
X3.1Y-2.5875
X3.35Y-2.4875
X8.35Y-2.5875
X8.6Y-2.4875
X3.475Y-4.0875
X3.725Y-3.9875
X2.9125Y-2.5875
X3.1625Y-2.4875
X10.225Y-1.8375
X10.475Y-1.7375
X10.975Y-4.0875
X11.225Y-3.9875
X12.475Y-1.8375
X12.725Y-1.7375
X8.4437Y-3.3375
X8.6937Y-3.2375
X10.7875Y-3.3375
X11.0375Y-3.2375
X6.7562Y-4.8375
X7.0062Y-4.7375
X5.35Y-2.5875
X5.6Y-2.4875
X12.85Y-2.5875
X13.1Y-2.4875
X7.225Y-4.0875
X7.475Y-3.9875
X7.975Y-4.8375
X8.225Y-4.7375
T7
X3.5074Y-2.6737
T4
G00X3.0913Y-1.4451
M15
G01X3.0913Y-1.4924
M16
G05
G00X3.0913Y-1.6223
M15
G01X3.0913Y-1.6695
M16
G05
G00X3.3787Y-1.4451
M15
G01X3.3787Y-1.4924
M16
G05
G00X3.3787Y-1.6223
M15
G01X3.3787Y-1.6695
M16
G05
T6
G00X9.966Y-4.9296
M15
G01X10.0645Y-4.9296
M16
G05
G00X12.7042Y-2.6737
M15
G01X12.8027Y-2.6737
M16
G05
T0
M30
