M48
INCH
T1C0.0157
T2C0.0197
T3C0.0256
T4C0.0276
T5C0.0579
T6C0.0984
T7C0.0984
%
G90
G05
T1
X2.9568Y-2.9482
X3.155Y-2.21
X3.275Y-2.21
X3.335Y-2.83
X3.363Y-2.353
X3.4349Y-2.3051
X3.57Y-3.185
X3.6051Y-2.8324
X3.815Y-3.565
X3.875Y-2.98
X3.895Y-2.025
X4.0376Y-2.1676
X4.18Y-2.2839
X4.62Y-3.0
X5.25Y-5.1562
X5.2502Y-5.0202
X5.3699Y-3.0149
X6.115Y-3.04
X6.88Y-3.05
X7.2389Y-3.355
X7.55Y-2.77
X7.6342Y-2.7415
X7.705Y-2.2662
X7.83Y-2.905
X7.845Y-3.655
X7.8485Y-3.22
X7.88Y-4.48
X7.9352Y-3.3748
X7.96Y-2.775
X7.975Y-3.55
X8.0Y-3.375
X8.0305Y-3.4255
X8.0591Y-2.2268
X8.06Y-3.375
X8.075Y-2.495
X8.1535Y-2.3335
X8.155Y-2.775
X8.25Y-3.36
X8.3274Y-5.1676
X8.375Y-2.805
X8.41Y-4.075
X8.413Y-2.968
X8.4192Y-3.6558
X8.425Y-3.605
X8.445Y-4.5258
X8.46Y-3.55
X8.5312Y-2.8125
X8.725Y-3.64
X8.8093Y-2.2947
X8.84Y-2.27
X8.895Y-4.451
X9.0038Y-2.9062
X9.5625Y-3.5275
X10.3125Y-3.5175
X10.485Y-4.515
X10.52Y-4.6
X11.0625Y-3.5175
X11.3808Y-4.5287
X11.395Y-4.8115
X11.4087Y-2.9062
X11.42Y-4.525
X11.4449Y-4.6351
X11.49Y-4.64
X11.6958Y-4.755
X11.7135Y-4.7171
X11.825Y-4.5
X12.11Y-4.59
X12.185Y-4.555
X12.225Y-4.625
X12.2788Y-3.6562
X12.28Y-4.61
X12.3Y-4.805
X12.4Y-4.78
X12.575Y-4.355
X12.62Y-4.655
X12.8095Y-3.1095
X12.9012Y-4.4062
X12.9018Y-4.4618
X12.995Y-4.605
X12.995Y-4.805
X13.145Y-2.31
X13.1862Y-4.4062
T2
X3.4168Y-2.6737
X3.4434Y-2.6097
X3.4434Y-2.7377
X3.5074Y-2.5832
X3.5074Y-2.7643
X3.5714Y-2.6097
X3.5714Y-2.7377
X3.5979Y-2.6737
T3
X12.6955Y-2.7675
X12.7005Y-2.5825
X12.7534Y-2.5832
X12.7534Y-2.7643
X12.8105Y-2.5825
X12.8105Y-2.7675
T5
X10.6625Y-4.7875
X10.72Y-4.8391
X10.7397Y-5.0359
X10.7625Y-5.0375
X8.725Y-4.0875
X8.7766Y-4.03
X8.9734Y-4.0103
X8.975Y-3.9875
X13.225Y-4.0875
X13.2766Y-4.03
X13.4734Y-4.0103
X13.475Y-3.9875
X4.975Y-4.0875
X5.0266Y-4.03
X5.2234Y-4.0103
X5.225Y-3.9875
X12.85Y-2.5875
X12.9016Y-2.53
X13.0984Y-2.5103
X13.1Y-2.4875
X4.8375Y-5.1375
X4.8391Y-5.1147
X5.0359Y-5.095
X5.0875Y-5.0375
X13.0375Y-2.5875
X13.0891Y-2.53
X13.2859Y-2.5103
X13.2875Y-2.4875
X12.8063Y-5.1375
X12.8078Y-5.1147
X13.0047Y-5.095
X13.0563Y-5.0375
X10.225Y-1.8375
X10.2766Y-1.78
X10.4734Y-1.7603
X10.475Y-1.7375
X8.5375Y-3.3375
X8.5891Y-3.28
X8.7859Y-3.2603
X8.7875Y-3.2375
X12.2875Y-3.3375
X12.3391Y-3.28
X12.5359Y-3.2603
X12.5375Y-3.2375
X7.975Y-4.8375
X8.0266Y-4.78
X8.2234Y-4.7603
X8.225Y-4.7375
X5.1625Y-3.3375
X5.2141Y-3.28
X5.4109Y-3.2603
X5.4125Y-3.2375
X5.725Y-4.0875
X5.7766Y-4.03
X5.9734Y-4.0103
X5.975Y-3.9875
X3.9438Y-4.8375
X3.9953Y-4.78
X4.1922Y-4.7603
X4.1937Y-4.7375
X9.1Y-2.5875
X9.1516Y-2.53
X9.3484Y-2.5103
X9.35Y-2.4875
X2.9125Y-3.3375
X2.9641Y-3.28
X3.1609Y-3.2603
X3.1625Y-3.2375
X10.225Y-4.8375
X10.2766Y-4.78
X10.4734Y-4.7603
X10.475Y-4.7375
X13.0875Y-5.1375
X13.0891Y-5.1147
X13.2859Y-5.095
X13.3375Y-5.0375
X2.725Y-1.8375
X2.7766Y-1.78
X2.9734Y-1.7603
X2.975Y-1.7375
X2.8188Y-3.3375
X2.8703Y-3.28
X3.0672Y-3.2603
X3.0688Y-3.2375
X4.975Y-1.8375
X5.0266Y-1.78
X5.2234Y-1.7603
X5.225Y-1.7375
X9.475Y-4.0875
X9.5266Y-4.03
X9.7234Y-4.0103
X9.725Y-3.9875
X10.975Y-1.8375
X11.0266Y-1.78
X11.2234Y-1.7603
X11.225Y-1.7375
X13.0375Y-3.3375
X13.0891Y-3.28
X13.2859Y-3.2603
X13.2875Y-3.2375
X4.6Y-2.5875
X4.6516Y-2.53
X4.8484Y-2.5103
X4.85Y-2.4875
X9.1Y-4.8375
X9.1516Y-4.78
X9.3484Y-4.7603
X9.35Y-4.7375
X6.475Y-4.0875
X6.5266Y-4.03
X6.7234Y-4.0103
X6.725Y-3.9875
X4.975Y-4.8375
X5.0266Y-4.78
X5.2234Y-4.7603
X5.225Y-4.7375
X3.6625Y-3.3375
X3.7141Y-3.28
X3.9109Y-3.2603
X3.9125Y-3.2375
X10.975Y-4.8375
X11.0266Y-4.78
X11.2234Y-4.7603
X11.225Y-4.7375
X7.975Y-4.8375
X8.0266Y-4.78
X8.2234Y-4.7603
X8.225Y-4.7375
X3.475Y-1.8375
X3.5266Y-1.78
X3.7234Y-1.7603
X3.725Y-1.7375
X7.5062Y-3.3375
X7.5578Y-3.28
X7.7547Y-3.2603
X7.7562Y-3.2375
X10.225Y-4.0875
X10.2766Y-4.03
X10.4734Y-4.0103
X10.475Y-3.9875
X11.725Y-1.8375
X11.7766Y-1.78
X11.9734Y-1.7603
X11.975Y-1.7375
X4.5062Y-4.8375
X4.5578Y-4.78
X4.7547Y-4.7603
X4.7562Y-4.7375
X5.9125Y-3.3375
X5.9641Y-3.28
X6.1609Y-3.2603
X6.1625Y-3.2375
X2.725Y-4.0875
X2.7766Y-4.03
X2.9734Y-4.0103
X2.975Y-3.9875
X5.35Y-2.5875
X5.4016Y-2.53
X5.5984Y-2.5103
X5.6Y-2.4875
X4.4125Y-3.3375
X4.4641Y-3.28
X4.6609Y-3.2603
X4.6625Y-3.2375
X5.4437Y-4.8375
X5.4953Y-4.78
X5.6922Y-4.7603
X5.6937Y-4.7375
X4.225Y-1.8375
X4.2766Y-1.78
X4.4734Y-1.7603
X4.475Y-1.7375
X8.4437Y-3.3375
X8.4953Y-3.28
X8.6922Y-3.2603
X8.6937Y-3.2375
X9.2875Y-3.3375
X9.3391Y-3.28
X9.5359Y-3.2603
X9.5375Y-3.2375
X11.4938Y-5.1375
X11.4953Y-5.1147
X11.6922Y-5.095
X11.7438Y-5.0375
X12.475Y-1.8375
X12.5266Y-1.78
X12.7234Y-1.7603
X12.725Y-1.7375
X6.6625Y-3.3375
X6.7141Y-3.28
X6.9109Y-3.2603
X6.9125Y-3.2375
X6.1Y-2.5875
X6.1516Y-2.53
X6.3484Y-2.5103
X6.35Y-2.4875
X9.85Y-2.5875
X9.9016Y-2.53
X10.0984Y-2.5103
X10.1Y-2.4875
X6.85Y-2.5875
X6.9016Y-2.53
X7.0984Y-2.5103
X7.1Y-2.4875
X7.975Y-1.8375
X8.0266Y-1.78
X8.2234Y-1.7603
X8.225Y-1.7375
X5.725Y-1.8375
X5.7766Y-1.78
X5.9734Y-1.7603
X5.975Y-1.7375
X6.7562Y-4.8375
X6.8078Y-4.78
X7.0047Y-4.7603
X7.0062Y-4.7375
X11.2125Y-5.1375
X11.2141Y-5.1147
X11.4109Y-5.095
X11.4625Y-5.0375
X9.4313Y-5.1375
X9.4328Y-5.1147
X9.6297Y-5.095
X9.6813Y-5.0375
X13.1312Y-3.3375
X13.1828Y-3.28
X13.3797Y-3.2603
X13.3812Y-3.2375
X10.0375Y-3.3375
X10.0891Y-3.28
X10.2859Y-3.2603
X10.2875Y-3.2375
X13.225Y-1.8375
X13.2766Y-1.78
X13.4734Y-1.7603
X13.475Y-1.7375
X7.4125Y-3.3375
X7.4641Y-3.28
X7.6609Y-3.2603
X7.6625Y-3.2375
X10.6Y-2.5875
X10.6516Y-2.53
X10.8484Y-2.5103
X10.85Y-2.4875
X7.975Y-4.0875
X8.0266Y-4.03
X8.2234Y-4.0103
X8.225Y-3.9875
X7.6Y-2.5875
X7.6516Y-2.53
X7.8484Y-2.5103
X7.85Y-2.4875
X11.725Y-4.8375
X11.7766Y-4.78
X11.9734Y-4.7603
X11.975Y-4.7375
X12.85Y-1.8375
X12.9016Y-1.78
X13.0984Y-1.7603
X13.1Y-1.7375
X7.225Y-4.0875
X7.2766Y-4.03
X7.4734Y-4.0103
X7.475Y-3.9875
X10.975Y-4.0875
X11.0266Y-4.03
X11.2234Y-4.0103
X11.225Y-3.9875
X10.7875Y-3.3375
X10.8391Y-3.28
X11.0359Y-3.2603
X11.0375Y-3.2375
X3.475Y-4.0875
X3.5266Y-4.03
X3.7234Y-4.0103
X3.725Y-3.9875
X6.475Y-1.8375
X6.5266Y-1.78
X6.7234Y-1.7603
X6.725Y-1.7375
X12.475Y-4.8375
X12.5266Y-4.78
X12.7234Y-4.7603
X12.725Y-4.7375
X12.15Y-5.1375
X12.1516Y-5.1147
X12.3484Y-5.095
X12.4Y-5.0375
X11.725Y-4.0875
X11.7766Y-4.03
X11.9734Y-4.0103
X11.975Y-3.9875
X6.6187Y-5.1375
X6.6203Y-5.1147
X6.8172Y-5.095
X6.8687Y-5.0375
X4.225Y-4.0875
X4.2766Y-4.03
X4.4734Y-4.0103
X4.475Y-3.9875
X3.1Y-2.5875
X3.1516Y-2.53
X3.3484Y-2.5103
X3.35Y-2.4875
X11.35Y-2.5875
X11.4016Y-2.53
X11.5984Y-2.5103
X11.6Y-2.4875
X8.35Y-2.5875
X8.4016Y-2.53
X8.5984Y-2.5103
X8.6Y-2.4875
X3.9Y-5.1375
X3.9016Y-5.1147
X4.0984Y-5.095
X4.15Y-5.0375
X2.775Y-5.1375
X2.7766Y-5.1147
X2.9734Y-5.095
X3.025Y-5.0375
X2.9125Y-4.8375
X2.9641Y-4.78
X3.1609Y-4.7603
X3.1625Y-4.7375
X8.725Y-1.8375
X8.7766Y-1.78
X8.9734Y-1.7603
X8.975Y-1.7375
X3.5688Y-4.8375
X3.6203Y-4.78
X3.8172Y-4.7603
X3.8188Y-4.7375
X7.975Y-4.0875
X8.0266Y-4.03
X8.2234Y-4.0103
X8.225Y-3.9875
X9.475Y-1.8375
X9.5266Y-1.78
X9.7234Y-1.7603
X9.725Y-1.7375
X12.475Y-4.0875
X12.5266Y-4.03
X12.7234Y-4.0103
X12.725Y-3.9875
X11.5375Y-3.3375
X11.5891Y-3.28
X11.7859Y-3.2603
X11.7875Y-3.2375
X3.85Y-2.5875
X3.9016Y-2.53
X4.0984Y-2.5103
X4.1Y-2.4875
X12.1Y-2.5875
X12.1516Y-2.53
X12.3484Y-2.5103
X12.35Y-2.4875
X7.225Y-1.8375
X7.2766Y-1.78
X7.4734Y-1.7603
X7.475Y-1.7375
X13.225Y-4.8375
X13.2766Y-4.78
X13.4734Y-4.7603
X13.475Y-4.7375
X2.9125Y-2.5875
X2.9641Y-2.53
X3.1609Y-2.5103
X3.1625Y-2.4875
T7
X3.5074Y-2.6737
T4
G00X3.0913Y-1.6053
M15
G01X3.0913Y-1.6525
M16
G05
G00X3.172Y-1.8277
M15
G01X3.172Y-1.8277
M16
G05
G00X3.2035Y-1.7805
M15
G01X3.2035Y-1.7805
M16
G05
G00X3.235Y-1.8277
M15
G01X3.235Y-1.8277
M16
G05
G00X3.2665Y-1.7805
M15
G01X3.2665Y-1.7805
M16
G05
G00X3.298Y-1.8277
M15
G01X3.298Y-1.8277
M16
G05
G00X3.3787Y-1.6053
M15
G01X3.3787Y-1.6525
M16
G05
T6
G00X9.966Y-4.9296
M15
G01X10.0645Y-4.9296
M16
G05
G00X12.7042Y-2.6737
M15
G01X12.8027Y-2.6737
M16
G05
T0
M30
