G04 #@! TF.GenerationSoftware,KiCad,Pcbnew,(5.1.2-1)-1*
G04 #@! TF.CreationDate,2019-10-01T12:43:39+02:00*
G04 #@! TF.ProjectId,kicad_pcb,6b696361-645f-4706-9362-2e6b69636164,rev?*
G04 #@! TF.SameCoordinates,Original*
G04 #@! TF.FileFunction,Profile,NP*
%FSLAX46Y46*%
G04 Gerber Fmt 4.6, Leading zero omitted, Abs format (unit mm)*
G04 Created by KiCad (PCBNEW (5.1.2-1)-1) date 2019-10-01 12:43:39*
%MOMM*%
%LPD*%
G04 APERTURE LIST*
%ADD10C,0.300000*%
G04 APERTURE END LIST*
D10*
X65887500Y-40012500D02*
X76087500Y-40012500D01*
X87587500Y-39512500D02*
G75*
G03X88087500Y-40012500I500000J0D01*
G01*
X76087500Y-40012500D02*
G75*
G03X76587500Y-39512500I0J500000D01*
G01*
X76587500Y-39512500D02*
X87587500Y-39512500D01*
X67687500Y-97912500D02*
G75*
G03X69087500Y-96512500I0J1400000D01*
G01*
X345087500Y-95112500D02*
X348887500Y-95112500D01*
X345087500Y-97912500D02*
X348887500Y-97912500D01*
X348887500Y-95112500D02*
X348887500Y-42012500D01*
X348887500Y-97912500D02*
X348887500Y-132612500D01*
X345087500Y-97912500D02*
G75*
G02X343687500Y-96512500I0J1400000D01*
G01*
X343687500Y-96512500D02*
G75*
G02X345087500Y-95112500I1400000J0D01*
G01*
X63887500Y-95112500D02*
X63887500Y-42012500D01*
X67687500Y-95112500D02*
X63887500Y-95112500D01*
X69087500Y-96512500D02*
G75*
G03X67687500Y-95112500I-1400000J0D01*
G01*
X63887500Y-97912500D02*
X67687500Y-97912500D01*
X63887500Y-132612500D02*
X63887500Y-97912500D01*
X348887500Y-42012500D02*
G75*
G03X346887500Y-40012500I-2000000J0D01*
G01*
X346887500Y-134612500D02*
G75*
G03X348887500Y-132612500I0J2000000D01*
G01*
X63887500Y-132612500D02*
G75*
G03X65887500Y-134612500I2000000J0D01*
G01*
X65887500Y-40012500D02*
G75*
G03X63887500Y-42012500I0J-2000000D01*
G01*
X346887500Y-40012500D02*
X88087500Y-40012500D01*
X65887500Y-134612500D02*
X346887500Y-134612500D01*
M02*
