G04 #@! TF.GenerationSoftware,KiCad,Pcbnew,(5.1.2-1)-1*
G04 #@! TF.CreationDate,2019-08-13T08:44:48+02:00*
G04 #@! TF.ProjectId,kicad_pcb,6b696361-645f-4706-9362-2e6b69636164,rev?*
G04 #@! TF.SameCoordinates,Original*
G04 #@! TF.FileFunction,Copper,L1,Top*
G04 #@! TF.FilePolarity,Positive*
%FSLAX46Y46*%
G04 Gerber Fmt 4.6, Leading zero omitted, Abs format (unit mm)*
G04 Created by KiCad (PCBNEW (5.1.2-1)-1) date 2019-08-13 08:44:48*
%MOMM*%
%LPD*%
G04 APERTURE LIST*
%ADD10C,2.501900*%
%ADD11C,7.001300*%
%ADD12C,7.000240*%
%ADD13C,1.000000*%
%ADD14O,1.700000X2.700000*%
%ADD15O,1.100000X1.650000*%
%ADD16C,2.250000*%
%ADD17C,2.250000*%
%ADD18C,0.800000*%
%ADD19C,0.381000*%
%ADD20C,0.250000*%
G04 APERTURE END LIST*
D10*
X345087500Y-93861550D02*
X348887500Y-93861550D01*
X345087500Y-99163450D02*
G75*
G02X342436550Y-96512500I0J2650950D01*
G01*
X342436550Y-96512500D02*
G75*
G02X345087500Y-93861550I2650950J0D01*
G01*
X345087500Y-99163450D02*
X348937500Y-99163450D01*
X63887500Y-99163450D02*
X67687500Y-99163450D01*
X70338450Y-96512500D02*
G75*
G03X67687500Y-93861550I-2650950J0D01*
G01*
X67687500Y-99163450D02*
G75*
G03X70338450Y-96512500I0J2650950D01*
G01*
X63887500Y-93861550D02*
X67687500Y-93861550D01*
D11*
X89087500Y-67912500D03*
D12*
X254387500Y-125212500D03*
X323937500Y-67912500D03*
D13*
X89087500Y-65612500D03*
X86787500Y-67912500D03*
X91387500Y-67912500D03*
X89087500Y-70212500D03*
X87461154Y-66286154D03*
X90713846Y-66286154D03*
X87461154Y-69538846D03*
X90713846Y-69538846D03*
X323937500Y-65612500D03*
X323937500Y-70212500D03*
X325386500Y-70294500D03*
X322465500Y-70294500D03*
X322592500Y-65595500D03*
X325386500Y-65595500D03*
D14*
X85819000Y-41374000D03*
X78519000Y-41374000D03*
D15*
X83769000Y-46674000D03*
X82969000Y-44974000D03*
X82169000Y-46674000D03*
X81369000Y-44974000D03*
X80569000Y-46674000D03*
D16*
X70505000Y-130202500D03*
D17*
X70525000Y-129912500D02*
X70485000Y-130492500D01*
D16*
X70485000Y-130492500D03*
X76179999Y-128682500D03*
D17*
X76835000Y-127952500D02*
X75524998Y-129412500D01*
D16*
X75525000Y-129412500D03*
X96976250Y-120622500D03*
D17*
X96956250Y-120912500D02*
X96996250Y-120332500D01*
D16*
X96996250Y-120332500D03*
X91301251Y-122142500D03*
D17*
X90646250Y-122872500D02*
X91956252Y-121412500D01*
D16*
X91956250Y-121412500D03*
X115768750Y-121412500D03*
X115113751Y-122142500D03*
D17*
X114458750Y-122872500D02*
X115768752Y-121412500D01*
D16*
X120808750Y-120332500D03*
X120788750Y-120622500D03*
D17*
X120768750Y-120912500D02*
X120808750Y-120332500D01*
D16*
X139581250Y-121412500D03*
X138926251Y-122142500D03*
D17*
X138271250Y-122872500D02*
X139581252Y-121412500D01*
D16*
X144621250Y-120332500D03*
X144601250Y-120622500D03*
D17*
X144581250Y-120912500D02*
X144621250Y-120332500D01*
D16*
X177938750Y-120622500D03*
D17*
X177918750Y-120912500D02*
X177958750Y-120332500D01*
D16*
X177958750Y-120332500D03*
X172263751Y-122142500D03*
D17*
X171608750Y-122872500D02*
X172918752Y-121412500D01*
D16*
X172918750Y-121412500D03*
X80307500Y-120622500D03*
D17*
X80287500Y-120912500D02*
X80327500Y-120332500D01*
D16*
X80327500Y-120332500D03*
X74632501Y-122142500D03*
D17*
X73977500Y-122872500D02*
X75287502Y-121412500D01*
D16*
X75287500Y-121412500D03*
X106501250Y-120622500D03*
D17*
X106481250Y-120912500D02*
X106521250Y-120332500D01*
D16*
X106521250Y-120332500D03*
X100826251Y-122142500D03*
D17*
X100171250Y-122872500D02*
X101481252Y-121412500D01*
D16*
X101481250Y-121412500D03*
X127675000Y-121412500D03*
X127020001Y-122142500D03*
D17*
X126365000Y-122872500D02*
X127675002Y-121412500D01*
D16*
X132715000Y-120332500D03*
X132695000Y-120622500D03*
D17*
X132675000Y-120912500D02*
X132715000Y-120332500D01*
D16*
X273077500Y-127932500D03*
D17*
X272787500Y-127912500D02*
X273367500Y-127952500D01*
D16*
X273367500Y-127952500D03*
X271557500Y-122257501D03*
D17*
X270827500Y-121602500D02*
X272287500Y-122912502D01*
D16*
X272287500Y-122912500D03*
X291961250Y-130202500D03*
D17*
X291981250Y-129912500D02*
X291941250Y-130492500D01*
D16*
X291941250Y-130492500D03*
X297636249Y-128682500D03*
D17*
X298291250Y-127952500D02*
X296981248Y-129412500D01*
D16*
X296981250Y-129412500D03*
X325298750Y-130202500D03*
D17*
X325318750Y-129912500D02*
X325278750Y-130492500D01*
D16*
X325278750Y-130492500D03*
X330973749Y-128682500D03*
D17*
X331628750Y-127952500D02*
X330318748Y-129412500D01*
D16*
X330318750Y-129412500D03*
X284817500Y-130202500D03*
D17*
X284837500Y-129912500D02*
X284797500Y-130492500D01*
D16*
X284797500Y-130492500D03*
X290492499Y-128682500D03*
D17*
X291147500Y-127952500D02*
X289837498Y-129412500D01*
D16*
X289837500Y-129412500D03*
X239573750Y-130202500D03*
D17*
X239593750Y-129912500D02*
X239553750Y-130492500D01*
D16*
X239553750Y-130492500D03*
X245248749Y-128682500D03*
D17*
X245903750Y-127952500D02*
X244593748Y-129412500D01*
D16*
X244593750Y-129412500D03*
X168136250Y-130202500D03*
D17*
X168156250Y-129912500D02*
X168116250Y-130492500D01*
D16*
X168116250Y-130492500D03*
X173811249Y-128682500D03*
D17*
X174466250Y-127952500D02*
X173156248Y-129412500D01*
D16*
X173156250Y-129412500D03*
X70525000Y-45212500D03*
X69870001Y-45942500D03*
D17*
X69215000Y-46672500D02*
X70525002Y-45212500D01*
D16*
X75565000Y-44132500D03*
X75545000Y-44422500D03*
D17*
X75525000Y-44712500D02*
X75565000Y-44132500D01*
D16*
X94595000Y-44422500D03*
D17*
X94575000Y-44712500D02*
X94615000Y-44132500D01*
D16*
X94615000Y-44132500D03*
X88920001Y-45942500D03*
D17*
X88265000Y-46672500D02*
X89575002Y-45212500D01*
D16*
X89575000Y-45212500D03*
X108625000Y-45212500D03*
X107970001Y-45942500D03*
D17*
X107315000Y-46672500D02*
X108625002Y-45212500D01*
D16*
X113665000Y-44132500D03*
X113645000Y-44422500D03*
D17*
X113625000Y-44712500D02*
X113665000Y-44132500D01*
D16*
X127675000Y-45212500D03*
X127020001Y-45942500D03*
D17*
X126365000Y-46672500D02*
X127675002Y-45212500D01*
D16*
X132715000Y-44132500D03*
X132695000Y-44422500D03*
D17*
X132675000Y-44712500D02*
X132715000Y-44132500D01*
D16*
X151745000Y-44422500D03*
D17*
X151725000Y-44712500D02*
X151765000Y-44132500D01*
D16*
X151765000Y-44132500D03*
X146070001Y-45942500D03*
D17*
X145415000Y-46672500D02*
X146725002Y-45212500D01*
D16*
X146725000Y-45212500D03*
X170795000Y-44422500D03*
D17*
X170775000Y-44712500D02*
X170815000Y-44132500D01*
D16*
X170815000Y-44132500D03*
X165120001Y-45942500D03*
D17*
X164465000Y-46672500D02*
X165775002Y-45212500D01*
D16*
X165775000Y-45212500D03*
X189845000Y-44422500D03*
D17*
X189825000Y-44712500D02*
X189865000Y-44132500D01*
D16*
X189865000Y-44132500D03*
X184170001Y-45942500D03*
D17*
X183515000Y-46672500D02*
X184825002Y-45212500D01*
D16*
X184825000Y-45212500D03*
X208895000Y-44422500D03*
D17*
X208875000Y-44712500D02*
X208915000Y-44132500D01*
D16*
X208915000Y-44132500D03*
X203220001Y-45942500D03*
D17*
X202565000Y-46672500D02*
X203875002Y-45212500D01*
D16*
X203875000Y-45212500D03*
X227945000Y-44422500D03*
D17*
X227925000Y-44712500D02*
X227965000Y-44132500D01*
D16*
X227965000Y-44132500D03*
X222270001Y-45942500D03*
D17*
X221615000Y-46672500D02*
X222925002Y-45212500D01*
D16*
X222925000Y-45212500D03*
X246995000Y-44422500D03*
D17*
X246975000Y-44712500D02*
X247015000Y-44132500D01*
D16*
X247015000Y-44132500D03*
X241320001Y-45942500D03*
D17*
X240665000Y-46672500D02*
X241975002Y-45212500D01*
D16*
X241975000Y-45212500D03*
X266045000Y-44422500D03*
D17*
X266025000Y-44712500D02*
X266065000Y-44132500D01*
D16*
X266065000Y-44132500D03*
X260370001Y-45942500D03*
D17*
X259715000Y-46672500D02*
X261025002Y-45212500D01*
D16*
X261025000Y-45212500D03*
X280075000Y-45212500D03*
X279420001Y-45942500D03*
D17*
X278765000Y-46672500D02*
X280075002Y-45212500D01*
D16*
X285115000Y-44132500D03*
X285095000Y-44422500D03*
D17*
X285075000Y-44712500D02*
X285115000Y-44132500D01*
D16*
X304145000Y-44422500D03*
D17*
X304125000Y-44712500D02*
X304165000Y-44132500D01*
D16*
X304165000Y-44132500D03*
X298470001Y-45942500D03*
D17*
X297815000Y-46672500D02*
X299125002Y-45212500D01*
D16*
X299125000Y-45212500D03*
X318175000Y-45212500D03*
X317520001Y-45942500D03*
D17*
X316865000Y-46672500D02*
X318175002Y-45212500D01*
D16*
X323215000Y-44132500D03*
X323195000Y-44422500D03*
D17*
X323175000Y-44712500D02*
X323215000Y-44132500D01*
D16*
X342245000Y-44422500D03*
D17*
X342225000Y-44712500D02*
X342265000Y-44132500D01*
D16*
X342265000Y-44132500D03*
X336570001Y-45942500D03*
D17*
X335915000Y-46672500D02*
X337225002Y-45212500D01*
D16*
X337225000Y-45212500D03*
X80050000Y-64262500D03*
X79395001Y-64992500D03*
D17*
X78740000Y-65722500D02*
X80050002Y-64262500D01*
D16*
X85090000Y-63182500D03*
X85070000Y-63472500D03*
D17*
X85050000Y-63762500D02*
X85090000Y-63182500D01*
D16*
X99100000Y-64262500D03*
X98445001Y-64992500D03*
D17*
X97790000Y-65722500D02*
X99100002Y-64262500D01*
D16*
X104140000Y-63182500D03*
X104120000Y-63472500D03*
D17*
X104100000Y-63762500D02*
X104140000Y-63182500D01*
D16*
X118150000Y-64262500D03*
X117495001Y-64992500D03*
D17*
X116840000Y-65722500D02*
X118150002Y-64262500D01*
D16*
X123190000Y-63182500D03*
X123170000Y-63472500D03*
D17*
X123150000Y-63762500D02*
X123190000Y-63182500D01*
D16*
X137200000Y-64262500D03*
X136545001Y-64992500D03*
D17*
X135890000Y-65722500D02*
X137200002Y-64262500D01*
D16*
X142240000Y-63182500D03*
X142220000Y-63472500D03*
D17*
X142200000Y-63762500D02*
X142240000Y-63182500D01*
D16*
X156250000Y-64262500D03*
X155595001Y-64992500D03*
D17*
X154940000Y-65722500D02*
X156250002Y-64262500D01*
D16*
X161290000Y-63182500D03*
X161270000Y-63472500D03*
D17*
X161250000Y-63762500D02*
X161290000Y-63182500D01*
D16*
X175300000Y-64262500D03*
X174645001Y-64992500D03*
D17*
X173990000Y-65722500D02*
X175300002Y-64262500D01*
D16*
X180340000Y-63182500D03*
X180320000Y-63472500D03*
D17*
X180300000Y-63762500D02*
X180340000Y-63182500D01*
D16*
X194350000Y-64262500D03*
X193695001Y-64992500D03*
D17*
X193040000Y-65722500D02*
X194350002Y-64262500D01*
D16*
X199390000Y-63182500D03*
X199370000Y-63472500D03*
D17*
X199350000Y-63762500D02*
X199390000Y-63182500D01*
D16*
X218420000Y-63472500D03*
D17*
X218400000Y-63762500D02*
X218440000Y-63182500D01*
D16*
X218440000Y-63182500D03*
X212745001Y-64992500D03*
D17*
X212090000Y-65722500D02*
X213400002Y-64262500D01*
D16*
X213400000Y-64262500D03*
X237470000Y-63472500D03*
D17*
X237450000Y-63762500D02*
X237490000Y-63182500D01*
D16*
X237490000Y-63182500D03*
X231795001Y-64992500D03*
D17*
X231140000Y-65722500D02*
X232450002Y-64262500D01*
D16*
X232450000Y-64262500D03*
X256520000Y-63472500D03*
D17*
X256500000Y-63762500D02*
X256540000Y-63182500D01*
D16*
X256540000Y-63182500D03*
X250845001Y-64992500D03*
D17*
X250190000Y-65722500D02*
X251500002Y-64262500D01*
D16*
X251500000Y-64262500D03*
X270550000Y-64262500D03*
X269895001Y-64992500D03*
D17*
X269240000Y-65722500D02*
X270550002Y-64262500D01*
D16*
X275590000Y-63182500D03*
X275570000Y-63472500D03*
D17*
X275550000Y-63762500D02*
X275590000Y-63182500D01*
D16*
X289600000Y-64262500D03*
X288945001Y-64992500D03*
D17*
X288290000Y-65722500D02*
X289600002Y-64262500D01*
D16*
X294640000Y-63182500D03*
X294620000Y-63472500D03*
D17*
X294600000Y-63762500D02*
X294640000Y-63182500D01*
D16*
X308650000Y-64262500D03*
X307995001Y-64992500D03*
D17*
X307340000Y-65722500D02*
X308650002Y-64262500D01*
D16*
X313690000Y-63182500D03*
X313670000Y-63472500D03*
D17*
X313650000Y-63762500D02*
X313690000Y-63182500D01*
D16*
X332720000Y-63472500D03*
D17*
X332700000Y-63762500D02*
X332740000Y-63182500D01*
D16*
X332740000Y-63182500D03*
X327045001Y-64992500D03*
D17*
X326390000Y-65722500D02*
X327700002Y-64262500D01*
D16*
X327700000Y-64262500D03*
X75287500Y-83312500D03*
X74632501Y-84042500D03*
D17*
X73977500Y-84772500D02*
X75287502Y-83312500D01*
D16*
X80327500Y-82232500D03*
X80307500Y-82522500D03*
D17*
X80287500Y-82812500D02*
X80327500Y-82232500D01*
D16*
X94337500Y-83312500D03*
X93682501Y-84042500D03*
D17*
X93027500Y-84772500D02*
X94337502Y-83312500D01*
D16*
X99377500Y-82232500D03*
X99357500Y-82522500D03*
D17*
X99337500Y-82812500D02*
X99377500Y-82232500D01*
D16*
X113387500Y-83312500D03*
X112732501Y-84042500D03*
D17*
X112077500Y-84772500D02*
X113387502Y-83312500D01*
D16*
X118427500Y-82232500D03*
X118407500Y-82522500D03*
D17*
X118387500Y-82812500D02*
X118427500Y-82232500D01*
D16*
X132437500Y-83312500D03*
X131782501Y-84042500D03*
D17*
X131127500Y-84772500D02*
X132437502Y-83312500D01*
D16*
X137477500Y-82232500D03*
X137457500Y-82522500D03*
D17*
X137437500Y-82812500D02*
X137477500Y-82232500D01*
D16*
X151487500Y-83312500D03*
X150832501Y-84042500D03*
D17*
X150177500Y-84772500D02*
X151487502Y-83312500D01*
D16*
X156527500Y-82232500D03*
X156507500Y-82522500D03*
D17*
X156487500Y-82812500D02*
X156527500Y-82232500D01*
D16*
X175557500Y-82522500D03*
D17*
X175537500Y-82812500D02*
X175577500Y-82232500D01*
D16*
X175577500Y-82232500D03*
X169882501Y-84042500D03*
D17*
X169227500Y-84772500D02*
X170537502Y-83312500D01*
D16*
X170537500Y-83312500D03*
X189587500Y-83312500D03*
X188932501Y-84042500D03*
D17*
X188277500Y-84772500D02*
X189587502Y-83312500D01*
D16*
X194627500Y-82232500D03*
X194607500Y-82522500D03*
D17*
X194587500Y-82812500D02*
X194627500Y-82232500D01*
D16*
X223182500Y-82522500D03*
D17*
X223162500Y-82812500D02*
X223202500Y-82232500D01*
D16*
X223202500Y-82232500D03*
X217507501Y-84042500D03*
D17*
X216852500Y-84772500D02*
X218162502Y-83312500D01*
D16*
X218162500Y-83312500D03*
X242232500Y-82522500D03*
D17*
X242212500Y-82812500D02*
X242252500Y-82232500D01*
D16*
X242252500Y-82232500D03*
X236557501Y-84042500D03*
D17*
X235902500Y-84772500D02*
X237212502Y-83312500D01*
D16*
X237212500Y-83312500D03*
X261282500Y-82522500D03*
D17*
X261262500Y-82812500D02*
X261302500Y-82232500D01*
D16*
X261302500Y-82232500D03*
X255607501Y-84042500D03*
D17*
X254952500Y-84772500D02*
X256262502Y-83312500D01*
D16*
X256262500Y-83312500D03*
X275312500Y-83312500D03*
X274657501Y-84042500D03*
D17*
X274002500Y-84772500D02*
X275312502Y-83312500D01*
D16*
X280352500Y-82232500D03*
X280332500Y-82522500D03*
D17*
X280312500Y-82812500D02*
X280352500Y-82232500D01*
D16*
X299382500Y-82522500D03*
D17*
X299362500Y-82812500D02*
X299402500Y-82232500D01*
D16*
X299402500Y-82232500D03*
X293707501Y-84042500D03*
D17*
X293052500Y-84772500D02*
X294362502Y-83312500D01*
D16*
X294362500Y-83312500D03*
X313412500Y-83312500D03*
X312757501Y-84042500D03*
D17*
X312102500Y-84772500D02*
X313412502Y-83312500D01*
D16*
X318452500Y-82232500D03*
X318432500Y-82522500D03*
D17*
X318412500Y-82812500D02*
X318452500Y-82232500D01*
D16*
X337482500Y-82522500D03*
D17*
X337462500Y-82812500D02*
X337502500Y-82232500D01*
D16*
X337502500Y-82232500D03*
X331807501Y-84042500D03*
D17*
X331152500Y-84772500D02*
X332462502Y-83312500D01*
D16*
X332462500Y-83312500D03*
X75545000Y-101572500D03*
D17*
X75525000Y-101862500D02*
X75565000Y-101282500D01*
D16*
X75565000Y-101282500D03*
X69870001Y-103092500D03*
D17*
X69215000Y-103822500D02*
X70525002Y-102362500D01*
D16*
X70525000Y-102362500D03*
X89575000Y-102362500D03*
X88920001Y-103092500D03*
D17*
X88265000Y-103822500D02*
X89575002Y-102362500D01*
D16*
X94615000Y-101282500D03*
X94595000Y-101572500D03*
D17*
X94575000Y-101862500D02*
X94615000Y-101282500D01*
D16*
X108625000Y-102362500D03*
X107970001Y-103092500D03*
D17*
X107315000Y-103822500D02*
X108625002Y-102362500D01*
D16*
X113665000Y-101282500D03*
X113645000Y-101572500D03*
D17*
X113625000Y-101862500D02*
X113665000Y-101282500D01*
D16*
X127675000Y-102362500D03*
X127020001Y-103092500D03*
D17*
X126365000Y-103822500D02*
X127675002Y-102362500D01*
D16*
X132715000Y-101282500D03*
X132695000Y-101572500D03*
D17*
X132675000Y-101862500D02*
X132715000Y-101282500D01*
D16*
X146725000Y-102362500D03*
X146070001Y-103092500D03*
D17*
X145415000Y-103822500D02*
X146725002Y-102362500D01*
D16*
X151765000Y-101282500D03*
X151745000Y-101572500D03*
D17*
X151725000Y-101862500D02*
X151765000Y-101282500D01*
D16*
X165775000Y-102362500D03*
X165120001Y-103092500D03*
D17*
X164465000Y-103822500D02*
X165775002Y-102362500D01*
D16*
X170815000Y-101282500D03*
X170795000Y-101572500D03*
D17*
X170775000Y-101862500D02*
X170815000Y-101282500D01*
D16*
X189845000Y-101572500D03*
D17*
X189825000Y-101862500D02*
X189865000Y-101282500D01*
D16*
X189865000Y-101282500D03*
X184170001Y-103092500D03*
D17*
X183515000Y-103822500D02*
X184825002Y-102362500D01*
D16*
X184825000Y-102362500D03*
X208895000Y-101572500D03*
D17*
X208875000Y-101862500D02*
X208915000Y-101282500D01*
D16*
X208915000Y-101282500D03*
X203220001Y-103092500D03*
D17*
X202565000Y-103822500D02*
X203875002Y-102362500D01*
D16*
X203875000Y-102362500D03*
X222925000Y-102362500D03*
X222270001Y-103092500D03*
D17*
X221615000Y-103822500D02*
X222925002Y-102362500D01*
D16*
X227965000Y-101282500D03*
X227945000Y-101572500D03*
D17*
X227925000Y-101862500D02*
X227965000Y-101282500D01*
D16*
X246995000Y-101572500D03*
D17*
X246975000Y-101862500D02*
X247015000Y-101282500D01*
D16*
X247015000Y-101282500D03*
X241320001Y-103092500D03*
D17*
X240665000Y-103822500D02*
X241975002Y-102362500D01*
D16*
X241975000Y-102362500D03*
X266045000Y-101572500D03*
D17*
X266025000Y-101862500D02*
X266065000Y-101282500D01*
D16*
X266065000Y-101282500D03*
X260370001Y-103092500D03*
D17*
X259715000Y-103822500D02*
X261025002Y-102362500D01*
D16*
X261025000Y-102362500D03*
X280075000Y-102362500D03*
X279420001Y-103092500D03*
D17*
X278765000Y-103822500D02*
X280075002Y-102362500D01*
D16*
X285115000Y-101282500D03*
X285095000Y-101572500D03*
D17*
X285075000Y-101862500D02*
X285115000Y-101282500D01*
D16*
X304145000Y-101572500D03*
D17*
X304125000Y-101862500D02*
X304165000Y-101282500D01*
D16*
X304165000Y-101282500D03*
X298470001Y-103092500D03*
D17*
X297815000Y-103822500D02*
X299125002Y-102362500D01*
D16*
X299125000Y-102362500D03*
X323195000Y-101572500D03*
D17*
X323175000Y-101862500D02*
X323215000Y-101282500D01*
D16*
X323215000Y-101282500D03*
X317520001Y-103092500D03*
D17*
X316865000Y-103822500D02*
X318175002Y-102362500D01*
D16*
X318175000Y-102362500D03*
X342245000Y-101572500D03*
D17*
X342225000Y-101862500D02*
X342265000Y-101282500D01*
D16*
X342265000Y-101282500D03*
X336570001Y-103092500D03*
D17*
X335915000Y-103822500D02*
X337225002Y-102362500D01*
D16*
X337225000Y-102362500D03*
X203875000Y-121412500D03*
X203220001Y-122142500D03*
D17*
X202565000Y-122872500D02*
X203875002Y-121412500D01*
D16*
X208915000Y-120332500D03*
X208895000Y-120622500D03*
D17*
X208875000Y-120912500D02*
X208915000Y-120332500D01*
D16*
X237470000Y-120622500D03*
D17*
X237450000Y-120912500D02*
X237490000Y-120332500D01*
D16*
X237490000Y-120332500D03*
X231795001Y-122142500D03*
D17*
X231140000Y-122872500D02*
X232450002Y-121412500D01*
D16*
X232450000Y-121412500D03*
X266045000Y-120622500D03*
D17*
X266025000Y-120912500D02*
X266065000Y-120332500D01*
D16*
X266065000Y-120332500D03*
X260370001Y-122142500D03*
D17*
X259715000Y-122872500D02*
X261025002Y-121412500D01*
D16*
X261025000Y-121412500D03*
X280075000Y-121412500D03*
X279420001Y-122142500D03*
D17*
X278765000Y-122872500D02*
X280075002Y-121412500D01*
D16*
X285115000Y-120332500D03*
X285095000Y-120622500D03*
D17*
X285075000Y-120912500D02*
X285115000Y-120332500D01*
D16*
X304145000Y-120622500D03*
D17*
X304125000Y-120912500D02*
X304165000Y-120332500D01*
D16*
X304165000Y-120332500D03*
X298470001Y-122142500D03*
D17*
X297815000Y-122872500D02*
X299125002Y-121412500D01*
D16*
X299125000Y-121412500D03*
X323195000Y-120622500D03*
D17*
X323175000Y-120912500D02*
X323215000Y-120332500D01*
D16*
X323215000Y-120332500D03*
X317520001Y-122142500D03*
D17*
X316865000Y-122872500D02*
X318175002Y-121412500D01*
D16*
X318175000Y-121412500D03*
X342245000Y-120622500D03*
D17*
X342225000Y-120912500D02*
X342265000Y-120332500D01*
D16*
X342265000Y-120332500D03*
X336570001Y-122142500D03*
D17*
X335915000Y-122872500D02*
X337225002Y-121412500D01*
D16*
X337225000Y-121412500D03*
X80307500Y-63472500D03*
D17*
X80287500Y-63762500D02*
X80327500Y-63182500D01*
D16*
X80327500Y-63182500D03*
X74632501Y-64992500D03*
D17*
X73977500Y-65722500D02*
X75287502Y-64262500D01*
D16*
X75287500Y-64262500D03*
X332462500Y-64262500D03*
X331807501Y-64992500D03*
D17*
X331152500Y-65722500D02*
X332462502Y-64262500D01*
D16*
X337502500Y-63182500D03*
X337482500Y-63472500D03*
D17*
X337462500Y-63762500D02*
X337502500Y-63182500D01*
D16*
X77926250Y-82522500D03*
D17*
X77906250Y-82812500D02*
X77946250Y-82232500D01*
D16*
X77946250Y-82232500D03*
X72251251Y-84042500D03*
D17*
X71596250Y-84772500D02*
X72906252Y-83312500D01*
D16*
X72906250Y-83312500D03*
X191968750Y-83312500D03*
X191313751Y-84042500D03*
D17*
X190658750Y-84772500D02*
X191968752Y-83312500D01*
D16*
X197008750Y-82232500D03*
X196988750Y-82522500D03*
D17*
X196968750Y-82812500D02*
X197008750Y-82232500D01*
D16*
X220801250Y-82522500D03*
D17*
X220781250Y-82812500D02*
X220821250Y-82232500D01*
D16*
X220821250Y-82232500D03*
X215126251Y-84042500D03*
D17*
X214471250Y-84772500D02*
X215781252Y-83312500D01*
D16*
X215781250Y-83312500D03*
X334843750Y-83312500D03*
X334188751Y-84042500D03*
D17*
X333533750Y-84772500D02*
X334843752Y-83312500D01*
D16*
X339883750Y-82232500D03*
X339863750Y-82522500D03*
D17*
X339843750Y-82812500D02*
X339883750Y-82232500D01*
D16*
X332720000Y-44422500D03*
D17*
X332700000Y-44712500D02*
X332740000Y-44132500D01*
D16*
X332740000Y-44132500D03*
X327045001Y-45942500D03*
D17*
X326390000Y-46672500D02*
X327700002Y-45212500D01*
D16*
X327700000Y-45212500D03*
X308630000Y-130202500D03*
D17*
X308650000Y-129912500D02*
X308610000Y-130492500D01*
D16*
X308610000Y-130492500D03*
X314304999Y-128682500D03*
D17*
X314960000Y-127952500D02*
X313649998Y-129412500D01*
D16*
X313650000Y-129412500D03*
X104100000Y-129412500D03*
X104754999Y-128682500D03*
D17*
X105410000Y-127952500D02*
X104099998Y-129412500D01*
D16*
X99060000Y-130492500D03*
X99080000Y-130202500D03*
D17*
X99100000Y-129912500D02*
X99060000Y-130492500D01*
D16*
X122892500Y-130202500D03*
D17*
X122912500Y-129912500D02*
X122872500Y-130492500D01*
D16*
X122872500Y-130492500D03*
X128567499Y-128682500D03*
D17*
X129222500Y-127952500D02*
X127912498Y-129412500D01*
D16*
X127912500Y-129412500D03*
X332442500Y-130202500D03*
D17*
X332462500Y-129912500D02*
X332422500Y-130492500D01*
D16*
X332422500Y-130492500D03*
X338117499Y-128682500D03*
D17*
X338772500Y-127952500D02*
X337462498Y-129412500D01*
D16*
X337462500Y-129412500D03*
X208895000Y-120622500D03*
D17*
X208875000Y-120912500D02*
X208915000Y-120332500D01*
D16*
X208915000Y-120332500D03*
X203220001Y-122142500D03*
D17*
X202565000Y-122872500D02*
X203875002Y-121412500D01*
D16*
X203875000Y-121412500D03*
X208895000Y-101572500D03*
D17*
X208875000Y-101862500D02*
X208915000Y-101282500D01*
D16*
X208915000Y-101282500D03*
X203220001Y-103092500D03*
D17*
X202565000Y-103822500D02*
X203875002Y-102362500D01*
D16*
X203875000Y-102362500D03*
D18*
X202565000Y-90170000D03*
X214884000Y-90170000D03*
X79502000Y-45466000D03*
X75692000Y-41656000D03*
X206375000Y-63119000D03*
X213995000Y-91567000D03*
X191770000Y-70358000D03*
X90678000Y-80899000D03*
X216693750Y-71437500D03*
X224536000Y-58801000D03*
X201553653Y-85720347D03*
X87247500Y-58548500D03*
X84582000Y-55880000D03*
X198882000Y-73787000D03*
X202184000Y-70485000D03*
X207137000Y-70485000D03*
X209550000Y-85344000D03*
X199353000Y-81788000D03*
X213690500Y-75387500D03*
X102554250Y-55056250D03*
X98933000Y-51435000D03*
X75102499Y-74884501D03*
X98425000Y-75692000D03*
X212725000Y-71247000D03*
X206423852Y-57285500D03*
X106172000Y-58010500D03*
X96901000Y-90551000D03*
X84455000Y-58801000D03*
X81534000Y-55880000D03*
X90551000Y-60041510D03*
X86310750Y-55802250D03*
X117348000Y-76200000D03*
X136394510Y-76577510D03*
X155321000Y-77216000D03*
X174752000Y-77470000D03*
X266319000Y-114681000D03*
X200152000Y-113792000D03*
X203975000Y-87008000D03*
X290068000Y-114935000D03*
X309499000Y-115697000D03*
X300355000Y-114300000D03*
X325362459Y-78982459D03*
X91568750Y-71943750D03*
X84709000Y-71882000D03*
X333883000Y-58674000D03*
X242887500Y-89598500D03*
X261937500Y-89344500D03*
X280987500Y-89344500D03*
X133354653Y-127512653D03*
X133350000Y-130968750D03*
X193908314Y-69632999D03*
X195326000Y-58010500D03*
X223828892Y-58010500D03*
X228695250Y-73818750D03*
X289782250Y-73818750D03*
X297073990Y-120777000D03*
X213848275Y-92856725D03*
X199263000Y-92837000D03*
X311912000Y-117094000D03*
X311880250Y-92868750D03*
X213614000Y-103505000D03*
X214503000Y-114955990D03*
X211516750Y-131256250D03*
X289072367Y-115028373D03*
X297524000Y-119813596D03*
X305689000Y-118618000D03*
X289433000Y-117602000D03*
X327691750Y-111918750D03*
X334930750Y-111918750D03*
X183867500Y-85217000D03*
X203200000Y-85725000D03*
X221615000Y-92456000D03*
X204724000Y-85725000D03*
X225933000Y-113055980D03*
X327706970Y-113330970D03*
D19*
X202565000Y-90170000D02*
X214884000Y-90170000D01*
X79502000Y-45466000D02*
X75692000Y-41656000D01*
X227838000Y-69088000D02*
X227838000Y-88265000D01*
X224536000Y-91567000D02*
X213995000Y-91567000D01*
X227838000Y-88265000D02*
X224536000Y-91567000D01*
X184658000Y-88011000D02*
X188214000Y-91567000D01*
X204851000Y-91567000D02*
X213995000Y-91567000D01*
X184658000Y-72771000D02*
X184658000Y-88011000D01*
X187071000Y-70358000D02*
X184658000Y-72771000D01*
X191770000Y-70358000D02*
X187071000Y-70358000D01*
X224536000Y-58801000D02*
X227838000Y-62103000D01*
X227838000Y-62103000D02*
X227838000Y-64135000D01*
X216693750Y-71437500D02*
X222250000Y-71437500D01*
X227838000Y-64135000D02*
X227838000Y-65849500D01*
X201553653Y-86286032D02*
X201549000Y-86290685D01*
X201553653Y-85720347D02*
X201553653Y-86286032D01*
X93853000Y-65151000D02*
X87503000Y-58801000D01*
X87503000Y-58801000D02*
X87500000Y-58801000D01*
X93853000Y-77724000D02*
X93853000Y-65151000D01*
X87500000Y-58801000D02*
X87247500Y-58548500D01*
X90678000Y-80899000D02*
X93853000Y-77724000D01*
X87247500Y-58545500D02*
X84582000Y-55880000D01*
X87247500Y-58548500D02*
X87247500Y-58545500D01*
X226726750Y-67087750D02*
X227838000Y-68199000D01*
X226599750Y-67087750D02*
X226726750Y-67087750D01*
X227838000Y-68199000D02*
X227838000Y-69088000D01*
X222250000Y-71437500D02*
X226599750Y-67087750D01*
X226599750Y-67087750D02*
X227838000Y-65849500D01*
X201549000Y-90678000D02*
X202438000Y-91567000D01*
X201549000Y-90297000D02*
X201549000Y-90678000D01*
X202438000Y-91567000D02*
X204851000Y-91567000D01*
X201549000Y-86290685D02*
X201549000Y-90297000D01*
X201549000Y-90678000D02*
X200660000Y-91567000D01*
X188214000Y-91567000D02*
X200660000Y-91567000D01*
X198882000Y-73787000D02*
X199281999Y-73387001D01*
X199281999Y-73387001D02*
X202184000Y-70485000D01*
X202184000Y-70485000D02*
X207137000Y-70485000D01*
X205994000Y-81788000D02*
X199353000Y-81788000D01*
X209550000Y-85344000D02*
X205994000Y-81788000D01*
X207702685Y-70485000D02*
X207137000Y-70485000D01*
X209353685Y-70485000D02*
X207702685Y-70485000D01*
X213690500Y-74821815D02*
X209353685Y-70485000D01*
X213690500Y-75387500D02*
X213690500Y-74821815D01*
D20*
X102554250Y-55056250D02*
X98933000Y-51435000D01*
X69215000Y-46672500D02*
X69215000Y-46863000D01*
X69215000Y-46863000D02*
X69596000Y-47244000D01*
X73977500Y-84772500D02*
X75102499Y-83647501D01*
X73977500Y-84772500D02*
X71596250Y-84772500D01*
X70005260Y-84772500D02*
X68072000Y-86705760D01*
X71596250Y-84772500D02*
X70005260Y-84772500D01*
X68072000Y-86705760D02*
X68072000Y-88392000D01*
X68072000Y-88392000D02*
X72644000Y-92964000D01*
X72644000Y-100393500D02*
X69215000Y-103822500D01*
X72644000Y-92964000D02*
X72644000Y-100393500D01*
X75102499Y-83647501D02*
X75102499Y-74884501D01*
X70339999Y-126981999D02*
X72771000Y-129413000D01*
X72771500Y-129412500D02*
X75525000Y-129412500D01*
X70339999Y-104947499D02*
X70339999Y-126981999D01*
X72771000Y-129413000D02*
X72771500Y-129412500D01*
X69215000Y-103822500D02*
X70339999Y-104947499D01*
X69215000Y-46672500D02*
X69215000Y-47244000D01*
X69215000Y-47244000D02*
X69977000Y-48006000D01*
X80287500Y-63142500D02*
X80287500Y-63762500D01*
X69977000Y-52832000D02*
X80287500Y-63142500D01*
X69977000Y-48006000D02*
X69977000Y-52832000D01*
X75102499Y-74884501D02*
X67527998Y-67310000D01*
X67527998Y-55281002D02*
X69977000Y-52832000D01*
X67527998Y-67310000D02*
X67527998Y-55281002D01*
X89389999Y-104947499D02*
X89389999Y-121616249D01*
X89389999Y-121616249D02*
X90646250Y-122872500D01*
X88265000Y-103822500D02*
X89389999Y-104947499D01*
X93027500Y-86363490D02*
X93532010Y-86868000D01*
X93027500Y-84772500D02*
X93027500Y-86363490D01*
X93532010Y-98555490D02*
X88265000Y-103822500D01*
X93532010Y-86868000D02*
X93532010Y-98555490D01*
X97790000Y-65722500D02*
X97790000Y-66421000D01*
X97790000Y-66421000D02*
X98425000Y-67056000D01*
X98425000Y-79375000D02*
X93027500Y-84772500D01*
X88265000Y-46672500D02*
X88265000Y-47117000D01*
X88265000Y-47117000D02*
X88900000Y-47752000D01*
X88900000Y-56832500D02*
X97790000Y-65722500D01*
X88900000Y-47752000D02*
X88900000Y-56832500D01*
X98425000Y-75692000D02*
X98425000Y-79375000D01*
X98425000Y-67056000D02*
X98425000Y-75692000D01*
X89389999Y-121616249D02*
X84631751Y-121616249D01*
X84631751Y-121616249D02*
X83439000Y-122809000D01*
X76684000Y-122809000D02*
X75287500Y-121412500D01*
X83439000Y-122809000D02*
X76684000Y-122809000D01*
X212325001Y-70847001D02*
X210928001Y-70847001D01*
X212725000Y-71247000D02*
X212325001Y-70847001D01*
X207100001Y-57961649D02*
X206423852Y-57285500D01*
X207100001Y-67019001D02*
X207100001Y-57961649D01*
X210928001Y-70847001D02*
X207100001Y-67019001D01*
X106172000Y-58010500D02*
X109029500Y-60868000D01*
X109029500Y-60868000D02*
X109029500Y-84709000D01*
X103187500Y-90551000D02*
X96901000Y-90551000D01*
X109029500Y-84709000D02*
X103187500Y-90551000D01*
X84455000Y-58801000D02*
X84055001Y-58401001D01*
X84055001Y-58401001D02*
X81534000Y-55880000D01*
X90550010Y-60041510D02*
X90551000Y-60041510D01*
X88519000Y-58010500D02*
X90550010Y-60041510D01*
X88119001Y-57610501D02*
X86310750Y-55802250D01*
X88519000Y-58010500D02*
X88119001Y-57610501D01*
X112077500Y-84772500D02*
X112077500Y-85280500D01*
X112077500Y-85280500D02*
X112776000Y-85979000D01*
X112776000Y-98361500D02*
X107315000Y-103822500D01*
X112776000Y-85979000D02*
X112776000Y-98361500D01*
X116840000Y-65722500D02*
X116840000Y-66675000D01*
X116840000Y-66675000D02*
X117348000Y-67183000D01*
X117348000Y-79502000D02*
X112077500Y-84772500D01*
X107315000Y-103822500D02*
X107315000Y-104648000D01*
X107315000Y-104648000D02*
X108077000Y-105410000D01*
X108077000Y-116490750D02*
X114458750Y-122872500D01*
X108077000Y-105410000D02*
X108077000Y-116490750D01*
X108439999Y-57322499D02*
X116840000Y-65722500D01*
X108439999Y-47797499D02*
X108439999Y-57322499D01*
X107315000Y-46672500D02*
X108439999Y-47797499D01*
X117348000Y-76200000D02*
X117348000Y-79502000D01*
X117348000Y-67183000D02*
X117348000Y-76200000D01*
X108077000Y-116490750D02*
X108077000Y-116586000D01*
X108077000Y-116586000D02*
X106426000Y-118237000D01*
X100171250Y-122722500D02*
X100171250Y-122872500D01*
X104656750Y-118237000D02*
X100171250Y-122722500D01*
X106426000Y-118237000D02*
X104656750Y-118237000D01*
X114458750Y-122872500D02*
X112966500Y-122872500D01*
X112966500Y-122872500D02*
X111506000Y-124333000D01*
X111506000Y-124333000D02*
X111506000Y-126365000D01*
X109918500Y-127952500D02*
X105410000Y-127952500D01*
X111506000Y-126365000D02*
X109918500Y-127952500D01*
X135890000Y-67313490D02*
X136394510Y-67818000D01*
X135890000Y-65722500D02*
X135890000Y-67313490D01*
X136394510Y-79505490D02*
X131127500Y-84772500D01*
X131127500Y-84772500D02*
X131127500Y-85407500D01*
X131127500Y-85407500D02*
X131826000Y-86106000D01*
X131826000Y-98361500D02*
X126365000Y-103822500D01*
X131826000Y-86106000D02*
X131826000Y-98361500D01*
X126365000Y-103822500D02*
X126365000Y-104394000D01*
X126365000Y-103822500D02*
X126365000Y-104521000D01*
X126365000Y-104521000D02*
X127000000Y-105156000D01*
X127000000Y-105156000D02*
X127000000Y-111601250D01*
X126365000Y-46672500D02*
X126365000Y-47117000D01*
X126365000Y-47117000D02*
X127254000Y-48006000D01*
X127254000Y-57086500D02*
X135890000Y-65722500D01*
X127254000Y-48006000D02*
X127254000Y-57086500D01*
X136394510Y-76577510D02*
X136394510Y-79505490D01*
X136394510Y-67818000D02*
X136394510Y-76577510D01*
X127000000Y-111601250D02*
X127000000Y-111633000D01*
X129222500Y-127952500D02*
X129603500Y-127952500D01*
X129603500Y-127952500D02*
X130175000Y-128524000D01*
X130175000Y-128524000D02*
X131318000Y-128524000D01*
X131318000Y-128524000D02*
X133731000Y-126111000D01*
X133731000Y-126111000D02*
X133731000Y-124460000D01*
X135318500Y-122872500D02*
X138271250Y-122872500D01*
X133731000Y-124460000D02*
X135318500Y-122872500D01*
X129071500Y-122809000D02*
X127675000Y-121412500D01*
X132080000Y-122809000D02*
X129071500Y-122809000D01*
X133731000Y-124460000D02*
X132080000Y-122809000D01*
X127000000Y-120737500D02*
X127675000Y-121412500D01*
X127000000Y-111601250D02*
X127000000Y-120737500D01*
X154940000Y-65722500D02*
X154940000Y-66421000D01*
X154940000Y-66421000D02*
X155321000Y-66802000D01*
X155321000Y-79629000D02*
X150177500Y-84772500D01*
X150177500Y-86363490D02*
X150555010Y-86741000D01*
X150177500Y-84772500D02*
X150177500Y-86363490D01*
X150555010Y-98682490D02*
X145415000Y-103822500D01*
X150555010Y-86741000D02*
X150555010Y-98682490D01*
X145415000Y-46672500D02*
X145415000Y-47244000D01*
X145415000Y-47244000D02*
X146304000Y-48133000D01*
X146304000Y-57086500D02*
X154940000Y-65722500D01*
X146304000Y-48133000D02*
X146304000Y-57086500D01*
X155321000Y-77216000D02*
X155321000Y-79629000D01*
X155321000Y-66802000D02*
X155321000Y-77216000D01*
X167513000Y-129269250D02*
X168156250Y-129912500D01*
X169545000Y-121666000D02*
X167513000Y-123698000D01*
X171608750Y-122078750D02*
X171196000Y-121666000D01*
X171196000Y-121666000D02*
X169545000Y-121666000D01*
X167513000Y-123698000D02*
X167513000Y-129269250D01*
X171608750Y-122872500D02*
X171608750Y-122078750D01*
X146177000Y-110109000D02*
X146177000Y-105029000D01*
X145415000Y-104267000D02*
X145415000Y-103822500D01*
X158940500Y-122872500D02*
X146177000Y-110109000D01*
X146177000Y-105029000D02*
X145415000Y-104267000D01*
X166687500Y-122872500D02*
X158940500Y-122872500D01*
X167513000Y-123698000D02*
X166687500Y-122872500D01*
X164465000Y-46672500D02*
X164465000Y-47244000D01*
X164465000Y-47244000D02*
X165227000Y-48006000D01*
X165227000Y-56959500D02*
X173990000Y-65722500D01*
X165227000Y-48006000D02*
X165227000Y-56959500D01*
X173990000Y-65722500D02*
X173990000Y-66675000D01*
X173990000Y-66675000D02*
X174752000Y-67437000D01*
X174752000Y-79248000D02*
X169227500Y-84772500D01*
X169227500Y-84772500D02*
X169227500Y-85534500D01*
X169227500Y-85534500D02*
X169799000Y-86106000D01*
X169799000Y-98488500D02*
X164465000Y-103822500D01*
X169799000Y-86106000D02*
X169799000Y-98488500D01*
X174752000Y-77470000D02*
X174752000Y-79248000D01*
X174752000Y-67437000D02*
X174752000Y-77470000D01*
X195303960Y-115443000D02*
X196965980Y-113780980D01*
X191885980Y-113780980D02*
X193548000Y-115443000D01*
X200140980Y-113780980D02*
X200152000Y-113792000D01*
X166866980Y-113780980D02*
X191885980Y-113780980D01*
X164973000Y-111887000D02*
X166866980Y-113780980D01*
X196965980Y-113780980D02*
X200140980Y-113780980D01*
X164973000Y-104648000D02*
X164973000Y-111887000D01*
X193548000Y-115443000D02*
X195303960Y-115443000D01*
X164465000Y-104140000D02*
X164973000Y-104648000D01*
X164465000Y-103822500D02*
X164465000Y-104140000D01*
X270827500Y-119189500D02*
X270827500Y-121602500D01*
X266319000Y-114681000D02*
X270827500Y-119189500D01*
X203073000Y-122364500D02*
X202565000Y-122872500D01*
X203073000Y-105029000D02*
X203073000Y-122364500D01*
X202565000Y-104521000D02*
X203073000Y-105029000D01*
X202565000Y-103822500D02*
X202565000Y-104521000D01*
X291147500Y-128102500D02*
X291147500Y-127952500D01*
X291147500Y-127952500D02*
X291147500Y-126555500D01*
X291147500Y-126555500D02*
X290957000Y-126365000D01*
X290957000Y-115824000D02*
X290068000Y-114935000D01*
X290957000Y-126365000D02*
X290957000Y-115824000D01*
X291981250Y-129912500D02*
X291981250Y-130310250D01*
X199771000Y-66294000D02*
X203975000Y-62090000D01*
X203975000Y-62090000D02*
X203975000Y-48082500D01*
X197739000Y-80518000D02*
X197739000Y-71120000D01*
X199771000Y-69088000D02*
X199771000Y-66294000D01*
X201860002Y-83312000D02*
X199771000Y-83312000D01*
X197739000Y-71120000D02*
X199771000Y-69088000D01*
X198628000Y-81407000D02*
X197739000Y-80518000D01*
X203975000Y-48082500D02*
X202565000Y-46672500D01*
X198628000Y-82169000D02*
X198628000Y-81407000D01*
X199771000Y-83312000D02*
X198628000Y-82169000D01*
X203975000Y-85426998D02*
X201860002Y-83312000D01*
X203975000Y-87008000D02*
X203975000Y-85426998D01*
X309499000Y-115697000D02*
X303276000Y-115697000D01*
X301879000Y-114300000D02*
X300355000Y-114300000D01*
X303276000Y-115697000D02*
X301879000Y-114300000D01*
X240665000Y-46672500D02*
X240665000Y-47244000D01*
X240665000Y-47244000D02*
X241173000Y-47752000D01*
X241173000Y-55689500D02*
X231140000Y-65722500D01*
X241173000Y-47752000D02*
X241173000Y-55689500D01*
X231140000Y-65722500D02*
X231140000Y-66167000D01*
X231140000Y-66167000D02*
X231775000Y-66802000D01*
X231775000Y-80645000D02*
X235902500Y-84772500D01*
X231775000Y-66802000D02*
X231775000Y-80645000D01*
X235902500Y-84772500D02*
X235902500Y-85407500D01*
X235902500Y-85407500D02*
X236601000Y-86106000D01*
X236601000Y-99758500D02*
X240665000Y-103822500D01*
X236601000Y-86106000D02*
X236601000Y-99758500D01*
X240665000Y-103822500D02*
X240665000Y-104521000D01*
X240665000Y-104521000D02*
X241300000Y-105156000D01*
X241300000Y-112712500D02*
X231140000Y-122872500D01*
X241300000Y-105156000D02*
X241300000Y-112712500D01*
X259715000Y-46672500D02*
X259715000Y-47117000D01*
X259715000Y-47117000D02*
X260223000Y-47625000D01*
X260223000Y-55689500D02*
X250190000Y-65722500D01*
X260223000Y-47625000D02*
X260223000Y-55689500D01*
X250190000Y-65722500D02*
X250190000Y-66040000D01*
X250190000Y-66040000D02*
X250952000Y-66802000D01*
X250952000Y-80772000D02*
X254952500Y-84772500D01*
X250952000Y-66802000D02*
X250952000Y-80772000D01*
X254952500Y-84772500D02*
X254952500Y-85407500D01*
X254952500Y-85407500D02*
X255651000Y-86106000D01*
X255651000Y-99758500D02*
X259715000Y-103822500D01*
X255651000Y-86106000D02*
X255651000Y-99758500D01*
X260350000Y-122237500D02*
X259715000Y-122872500D01*
X260350000Y-105156000D02*
X260350000Y-122237500D01*
X259715000Y-104521000D02*
X260350000Y-105156000D01*
X259715000Y-103822500D02*
X259715000Y-104521000D01*
X278765000Y-46672500D02*
X278765000Y-47244000D01*
X278765000Y-47244000D02*
X279273000Y-47752000D01*
X279273000Y-55689500D02*
X269240000Y-65722500D01*
X279273000Y-47752000D02*
X279273000Y-55689500D01*
X269240000Y-65722500D02*
X269240000Y-66167000D01*
X269240000Y-66167000D02*
X269748000Y-66675000D01*
X269748000Y-80518000D02*
X274002500Y-84772500D01*
X269748000Y-66675000D02*
X269748000Y-80518000D01*
X274002500Y-84772500D02*
X274002500Y-85407500D01*
X274002500Y-85407500D02*
X274701000Y-86106000D01*
X274701000Y-99758500D02*
X278765000Y-103822500D01*
X274701000Y-86106000D02*
X274701000Y-99758500D01*
X279400000Y-122237500D02*
X278765000Y-122872500D01*
X279400000Y-105029000D02*
X279400000Y-122237500D01*
X278765000Y-104394000D02*
X279400000Y-105029000D01*
X278765000Y-103822500D02*
X278765000Y-104394000D01*
X297815000Y-46672500D02*
X297815000Y-47244000D01*
X297815000Y-47244000D02*
X298450000Y-47879000D01*
X298450000Y-55562500D02*
X288290000Y-65722500D01*
X298450000Y-47879000D02*
X298450000Y-55562500D01*
X293624000Y-99631500D02*
X297815000Y-103822500D01*
X293624000Y-85852000D02*
X293624000Y-99631500D01*
X288290000Y-65722500D02*
X288290000Y-66421000D01*
X288290000Y-66421000D02*
X289052000Y-67183000D01*
X289052000Y-67183000D02*
X289052000Y-80772000D01*
X298323000Y-122364500D02*
X297815000Y-122872500D01*
X297815000Y-104775000D02*
X298323000Y-105283000D01*
X297815000Y-103822500D02*
X297815000Y-104775000D01*
X296690001Y-121747501D02*
X297815000Y-122872500D01*
X296348990Y-121406490D02*
X296690001Y-121747501D01*
X296348990Y-115891600D02*
X296348990Y-121406490D01*
X298323000Y-113917590D02*
X296348990Y-115891600D01*
X298323000Y-105283000D02*
X298323000Y-113917590D01*
X289052000Y-80772000D02*
X293052500Y-84772500D01*
X293052500Y-85280500D02*
X293624000Y-85852000D01*
X293052500Y-84772500D02*
X293052500Y-85280500D01*
X316865000Y-46672500D02*
X316865000Y-47498000D01*
X316865000Y-47498000D02*
X317373000Y-48006000D01*
X317373000Y-48006000D02*
X317373000Y-54102000D01*
X308464999Y-63010001D02*
X308464999Y-64597501D01*
X308464999Y-64597501D02*
X307340000Y-65722500D01*
X317373000Y-54102000D02*
X308464999Y-63010001D01*
X307340000Y-65722500D02*
X307340000Y-66421000D01*
X307340000Y-66421000D02*
X308102000Y-67183000D01*
X308102000Y-80772000D02*
X312102500Y-84772500D01*
X313227499Y-100184999D02*
X316865000Y-103822500D01*
X313227499Y-85897499D02*
X313227499Y-100184999D01*
X312102500Y-84772500D02*
X313227499Y-85897499D01*
X308102000Y-67183000D02*
X308102000Y-80772000D01*
X317500000Y-122237500D02*
X316865000Y-122872500D01*
X317627000Y-115062000D02*
X319299999Y-116734999D01*
X317627000Y-105156000D02*
X317627000Y-115062000D01*
X319299999Y-116734999D02*
X319299999Y-120287501D01*
X319299999Y-120287501D02*
X318175000Y-121412500D01*
X316865000Y-104394000D02*
X317627000Y-105156000D01*
X316865000Y-103822500D02*
X316865000Y-104394000D01*
X326390000Y-46672500D02*
X326390000Y-46990000D01*
X335915000Y-46672500D02*
X335915000Y-44069000D01*
X335915000Y-44069000D02*
X333756000Y-41910000D01*
X331152500Y-41910000D02*
X326390000Y-46672500D01*
X333756000Y-41910000D02*
X331152500Y-41910000D01*
X342900000Y-73025000D02*
X331152500Y-84772500D01*
X342900000Y-67945000D02*
X342900000Y-73025000D01*
X333533750Y-84772500D02*
X331152500Y-84772500D01*
X334790001Y-102697501D02*
X334726501Y-102697501D01*
X335915000Y-103822500D02*
X334790001Y-102697501D01*
X334726501Y-102697501D02*
X327406000Y-95377000D01*
X329561510Y-84772500D02*
X331152500Y-84772500D01*
X327406000Y-86928010D02*
X329561510Y-84772500D01*
X327406000Y-95377000D02*
X327406000Y-86928010D01*
X335915000Y-103822500D02*
X335915000Y-104521000D01*
X331152500Y-84772500D02*
X325362459Y-78982459D01*
X336550000Y-122237500D02*
X335915000Y-122872500D01*
X336550000Y-105029000D02*
X336550000Y-122237500D01*
X335915000Y-104394000D02*
X336550000Y-105029000D01*
X335915000Y-103822500D02*
X335915000Y-104394000D01*
X335915000Y-46672500D02*
X335915000Y-46863000D01*
X335915000Y-46863000D02*
X336931000Y-47879000D01*
X333587499Y-65387499D02*
X333646501Y-65387499D01*
X332462500Y-64262500D02*
X333587499Y-65387499D01*
X333646501Y-65387499D02*
X333664002Y-65405000D01*
X333664002Y-65405000D02*
X336169000Y-65405000D01*
X336169000Y-65405000D02*
X337058000Y-66294000D01*
X337058000Y-66294000D02*
X342265000Y-66294000D01*
X342265000Y-66294000D02*
X342900000Y-66929000D01*
X342900000Y-66929000D02*
X342900000Y-67945000D01*
X342900000Y-61976000D02*
X336931000Y-56007000D01*
X342265000Y-66294000D02*
X342900000Y-65659000D01*
X342900000Y-65659000D02*
X342900000Y-61976000D01*
X336931000Y-47879000D02*
X336931000Y-56007000D01*
X73977500Y-65722500D02*
X73977500Y-65976500D01*
X73977500Y-65722500D02*
X73977500Y-66103500D01*
X73977500Y-65976500D02*
X74549000Y-66548000D01*
X84770750Y-71943750D02*
X84709000Y-71882000D01*
X91568750Y-71943750D02*
X84770750Y-71943750D01*
X332700000Y-44712500D02*
X332700000Y-46315000D01*
X332700000Y-46315000D02*
X332994000Y-46609000D01*
X326677090Y-64990910D02*
X326899340Y-65213160D01*
X332994000Y-57785000D02*
X333883000Y-58674000D01*
X332994000Y-46609000D02*
X332994000Y-57785000D01*
X242887500Y-82867500D02*
X242252500Y-82232500D01*
X242887500Y-89598500D02*
X242887500Y-82867500D01*
X261937500Y-82867500D02*
X261302500Y-82232500D01*
X261937500Y-89344500D02*
X261937500Y-82867500D01*
X280987500Y-82867500D02*
X280987500Y-89344500D01*
X280352500Y-82232500D02*
X280987500Y-82867500D01*
X337502500Y-82232500D02*
X339883750Y-82232500D01*
X133354653Y-127512653D02*
X133354653Y-130932347D01*
X238506000Y-122939490D02*
X238506000Y-128824750D01*
X237490000Y-121923490D02*
X238506000Y-122939490D01*
X238506000Y-128824750D02*
X239593750Y-129912500D01*
X237490000Y-120332500D02*
X237490000Y-121923490D01*
X228669999Y-73793499D02*
X228695250Y-73818750D01*
X224818502Y-58010500D02*
X228669999Y-61861997D01*
X223828892Y-58010500D02*
X224818502Y-58010500D01*
X228669999Y-61861997D02*
X228669999Y-73793499D01*
X289502010Y-74098990D02*
X289782250Y-73818750D01*
X289502010Y-80585600D02*
X289502010Y-74098990D01*
X194183000Y-61849000D02*
X194183000Y-59153500D01*
X195961000Y-63627000D02*
X194183000Y-61849000D01*
X194183000Y-59153500D02*
X195326000Y-58010500D01*
X193929000Y-67437000D02*
X195961000Y-65405000D01*
X195961000Y-65405000D02*
X195961000Y-63627000D01*
X193929000Y-69612313D02*
X193929000Y-67437000D01*
X193908314Y-69632999D02*
X193929000Y-69612313D01*
X296037000Y-82677000D02*
X295021000Y-81661000D01*
X296037000Y-84201000D02*
X296037000Y-82677000D01*
X295021000Y-81661000D02*
X290577410Y-81661000D01*
X294074010Y-86163990D02*
X296037000Y-84201000D01*
X290577410Y-81661000D02*
X289502010Y-80585600D01*
X294074010Y-99445100D02*
X294074010Y-86163990D01*
X299720000Y-100711000D02*
X295339910Y-100711000D01*
X300736000Y-101727000D02*
X299720000Y-100711000D01*
X296799000Y-120502010D02*
X296799000Y-116078000D01*
X298773010Y-105213990D02*
X300736000Y-103251000D01*
X300736000Y-103251000D02*
X300736000Y-101727000D01*
X298773010Y-114103990D02*
X298773010Y-105213990D01*
X295339910Y-100711000D02*
X294074010Y-99445100D01*
X296799000Y-116078000D02*
X298773010Y-114103990D01*
X297073990Y-120777000D02*
X296799000Y-120502010D01*
X199282725Y-92856725D02*
X199263000Y-92837000D01*
X213848275Y-92856725D02*
X199282725Y-92856725D01*
X311912000Y-92900500D02*
X311880250Y-92868750D01*
X311912000Y-117094000D02*
X311912000Y-92900500D01*
X213614000Y-103505000D02*
X213614000Y-113538000D01*
X213614000Y-114066990D02*
X213614000Y-113538000D01*
X214503000Y-114955990D02*
X213614000Y-114066990D01*
X213614000Y-115844990D02*
X214503000Y-114955990D01*
X213614000Y-129159000D02*
X213614000Y-115844990D01*
X211516750Y-131256250D02*
X213614000Y-129159000D01*
X297524000Y-119813596D02*
X301953404Y-119813596D01*
X303149000Y-118618000D02*
X305689000Y-118618000D01*
X301953404Y-119813596D02*
X303149000Y-118618000D01*
X289072367Y-115028373D02*
X289072367Y-116098367D01*
X289072367Y-116675682D02*
X289072367Y-116098367D01*
X289433000Y-117036315D02*
X289072367Y-116675682D01*
X289433000Y-117602000D02*
X289433000Y-117036315D01*
X327691750Y-111918750D02*
X334930750Y-111918750D01*
X183515000Y-48263490D02*
X183892510Y-48641000D01*
X183515000Y-46672500D02*
X183515000Y-48263490D01*
X183892510Y-56575010D02*
X193040000Y-65722500D01*
X183892510Y-48641000D02*
X183892510Y-56575010D01*
X183867500Y-103470000D02*
X183515000Y-103822500D01*
X183867500Y-85217000D02*
X183867500Y-103470000D01*
X188277500Y-84772500D02*
X190658750Y-84772500D01*
X191783749Y-83647501D02*
X190658750Y-84772500D01*
X202247500Y-84772500D02*
X203200000Y-85725000D01*
X190658750Y-84772500D02*
X202247500Y-84772500D01*
X193177499Y-80126501D02*
X191968750Y-81335250D01*
X191968750Y-81335250D02*
X191968750Y-83312500D01*
X193177499Y-67172501D02*
X193177499Y-80126501D01*
X193675000Y-66675000D02*
X193177499Y-67172501D01*
X193040000Y-66040000D02*
X193675000Y-66675000D01*
X193040000Y-65722500D02*
X193040000Y-66040000D01*
X221615000Y-93021685D02*
X221615000Y-103822500D01*
X221615000Y-92456000D02*
X221615000Y-93021685D01*
X221615000Y-46672500D02*
X221615000Y-47498000D01*
X221615000Y-47498000D02*
X222250000Y-48133000D01*
X222250000Y-55562500D02*
X212090000Y-65722500D01*
X222250000Y-48133000D02*
X222250000Y-55562500D01*
X212090000Y-65722500D02*
X212090000Y-66421000D01*
X331628750Y-127952500D02*
X331628750Y-126904750D01*
X221615000Y-103822500D02*
X221615000Y-104648000D01*
X221615000Y-104648000D02*
X222250000Y-105283000D01*
X222250000Y-109372980D02*
X225933000Y-113055980D01*
X222250000Y-105283000D02*
X222250000Y-109372980D01*
X332462500Y-128786250D02*
X331628750Y-127952500D01*
X332462500Y-129912500D02*
X332462500Y-128786250D01*
X330818750Y-129912500D02*
X330318750Y-129412500D01*
X332462500Y-129912500D02*
X330818750Y-129912500D01*
X331343000Y-116967000D02*
X331343000Y-127666750D01*
X331343000Y-127666750D02*
X331628750Y-127952500D01*
X327706970Y-113330970D02*
X331343000Y-116967000D01*
X213169500Y-84772500D02*
X214471250Y-84772500D01*
X211074000Y-86868000D02*
X213169500Y-84772500D01*
X205867000Y-86868000D02*
X211074000Y-86868000D01*
X204724000Y-85725000D02*
X205867000Y-86868000D01*
X212090000Y-65722500D02*
X212090000Y-66929000D01*
X212090000Y-66929000D02*
X212852000Y-67691000D01*
X215781250Y-81721510D02*
X215781250Y-83312500D01*
X215781250Y-73230248D02*
X215781250Y-81721510D01*
X212852000Y-70300998D02*
X215781250Y-73230248D01*
X212852000Y-67691000D02*
X212852000Y-70300998D01*
M02*
