M48
INCH
T1C0.0689
T2C0.1200
T3C0.1570
%
G90
G05
T1
X2.8625Y-4.9375
X3.2625Y-4.9375
X7.925Y-4.1875
X8.325Y-4.1875
X7.925Y-1.9375
X8.325Y-1.9375
X10.5625Y-4.7375
X10.5625Y-5.1375
X7.55Y-2.6875
X7.95Y-2.6875
X3.5187Y-4.9375
X3.9187Y-4.9375
X12.9875Y-4.9375
X13.3875Y-4.9375
X9.05Y-4.9375
X9.45Y-4.9375
X10.925Y-4.9375
X11.325Y-4.9375
X6.7062Y-4.9375
X7.1063Y-4.9375
X6.8Y-2.6875
X7.2Y-2.6875
X13.175Y-4.9375
X13.575Y-4.9375
X6.425Y-4.1875
X6.825Y-4.1875
X8.675Y-1.9375
X9.075Y-1.9375
X12.9875Y-3.4375
X13.3875Y-3.4375
X4.7375Y-4.9375
X5.1375Y-4.9375
X8.3937Y-3.4375
X8.7937Y-3.4375
X11.3Y-2.6875
X11.7Y-2.6875
X11.3937Y-4.9375
X11.7937Y-4.9375
X12.05Y-2.6875
X12.45Y-2.6875
X3.8Y-4.9375
X4.2Y-4.9375
X3.6125Y-3.4375
X4.0125Y-3.4375
X4.175Y-1.9375
X4.575Y-1.9375
X3.425Y-1.9375
X3.825Y-1.9375
X7.925Y-4.1875
X8.325Y-4.1875
X3.8Y-2.6875
X4.2Y-2.6875
X2.7687Y-3.4375
X3.1687Y-3.4375
X5.675Y-1.9375
X6.075Y-1.9375
X2.8625Y-3.4375
X3.2625Y-3.4375
X11.675Y-4.9375
X12.075Y-4.9375
X6.5187Y-4.9375
X6.9188Y-4.9375
X3.8937Y-4.9375
X4.2938Y-4.9375
X9.8Y-2.6875
X10.2Y-2.6875
X5.675Y-4.1875
X6.075Y-4.1875
X3.05Y-2.6875
X3.45Y-2.6875
X11.675Y-1.9375
X12.075Y-1.9375
X12.2375Y-3.4375
X12.6375Y-3.4375
X4.3625Y-3.4375
X4.7625Y-3.4375
X4.4562Y-4.9375
X4.8563Y-4.9375
X12.425Y-4.1875
X12.825Y-4.1875
X4.925Y-4.1875
X5.325Y-4.1875
X6.05Y-2.6875
X6.45Y-2.6875
X4.925Y-4.9375
X5.325Y-4.9375
X8.3Y-2.6875
X8.7Y-2.6875
X10.175Y-4.1875
X10.575Y-4.1875
X2.8625Y-2.6875
X3.2625Y-2.6875
X10.925Y-1.9375
X11.325Y-1.9375
X10.175Y-1.9375
X10.575Y-1.9375
X11.675Y-4.1875
X12.075Y-4.1875
X6.6125Y-3.4375
X7.0125Y-3.4375
X13.175Y-4.1875
X13.575Y-4.1875
X13.0812Y-3.4375
X13.4812Y-3.4375
X5.1125Y-3.4375
X5.5125Y-3.4375
X12.8Y-2.6875
X13.2Y-2.6875
X7.925Y-4.9375
X8.325Y-4.9375
X9.425Y-4.1875
X9.825Y-4.1875
X11.4875Y-3.4375
X11.8875Y-3.4375
X8.4875Y-3.4375
X8.8875Y-3.4375
X9.3312Y-4.9375
X9.7312Y-4.9375
X7.175Y-1.9375
X7.575Y-1.9375
X12.05Y-4.9375
X12.45Y-4.9375
X4.175Y-4.1875
X4.575Y-4.1875
X6.425Y-1.9375
X6.825Y-1.9375
X5.3Y-2.6875
X5.7Y-2.6875
X3.425Y-4.1875
X3.825Y-4.1875
X9.2375Y-3.4375
X9.6375Y-3.4375
X13.175Y-1.9375
X13.575Y-1.9375
X12.425Y-1.9375
X12.825Y-1.9375
X10.175Y-4.9375
X10.575Y-4.9375
X8.675Y-4.1875
X9.075Y-4.1875
X12.7062Y-4.9375
X13.1062Y-4.9375
X5.3937Y-4.9375
X5.7938Y-4.9375
X4.55Y-2.6875
X4.95Y-2.6875
X10.7375Y-3.4375
X11.1375Y-3.4375
X2.675Y-1.9375
X3.075Y-1.9375
X7.3625Y-3.4375
X7.7625Y-3.4375
X10.55Y-2.6875
X10.95Y-2.6875
X11.1125Y-4.9375
X11.5125Y-4.9375
X7.4562Y-3.4375
X7.8563Y-3.4375
X5.8625Y-3.4375
X6.2625Y-3.4375
X4.925Y-1.9375
X5.325Y-1.9375
X12.8Y-1.9375
X13.2Y-1.9375
X12.425Y-4.9375
X12.825Y-4.9375
X9.9875Y-3.4375
X10.3875Y-3.4375
X7.175Y-4.1875
X7.575Y-4.1875
X2.675Y-4.1875
X3.075Y-4.1875
X10.925Y-4.1875
X11.325Y-4.1875
X7.925Y-4.9375
X8.325Y-4.9375
X12.9875Y-2.6875
X13.3875Y-2.6875
X2.675Y-4.9375
X3.075Y-4.9375
X9.05Y-2.6875
X9.45Y-2.6875
X9.425Y-1.9375
X9.825Y-1.9375
T2
X9.0612Y-5.2125
X10.0013Y-5.2125
X12.4362Y-5.2125
X13.3762Y-5.2125
X10.8425Y-5.2125
X11.7825Y-5.2125
X12.53Y-1.6625
X13.47Y-1.6625
X8.78Y-5.2125
X9.72Y-5.2125
X6.4363Y-5.2125
X7.3762Y-5.2125
X7.655Y-4.4625
X8.595Y-4.4625
X6.2488Y-5.2125
X7.1887Y-5.2125
X5.875Y-5.2125
X10.375Y-5.2125
T3
X8.5Y-2.6875
X10.375Y-4.1875
X3.0625Y-2.6875
X11.125Y-1.9375
X10.375Y-1.9375
X11.875Y-4.1875
X6.8125Y-3.4375
X13.375Y-4.1875
X13.2812Y-3.4375
X5.3125Y-3.4375
X13.0Y-2.6875
X5.875Y-4.6125
X8.125Y-4.9375
X10.375Y-4.6125
X9.625Y-4.1875
X11.6875Y-3.4375
X8.6875Y-3.4375
X9.0612Y-4.6125
X9.5312Y-4.9375
X10.0013Y-4.6125
X7.375Y-1.9375
X12.25Y-4.9375
X4.375Y-4.1875
X6.625Y-1.9375
X5.5Y-2.6875
X3.625Y-4.1875
X9.4375Y-3.4375
X13.375Y-1.9375
X12.625Y-1.9375
X10.375Y-4.9375
X8.875Y-4.1875
X12.4362Y-4.6125
X12.9062Y-4.9375
X13.3762Y-4.6125
X5.5938Y-4.9375
X4.75Y-2.6875
X10.9375Y-3.4375
X2.875Y-1.9375
X7.5625Y-3.4375
X10.75Y-2.6875
X10.8425Y-4.6125
X11.3125Y-4.9375
X11.7825Y-4.6125
X7.6562Y-3.4375
X6.0625Y-3.4375
X5.125Y-1.9375
X12.53Y-2.2625
X13.0Y-1.9375
X13.47Y-2.2625
X12.625Y-4.9375
X10.1875Y-3.4375
X7.375Y-4.1875
X2.875Y-4.1875
X11.125Y-4.1875
X8.125Y-4.9375
X13.1875Y-2.6875
X2.875Y-4.9375
X9.25Y-2.6875
X9.625Y-1.9375
X3.0625Y-4.9375
X8.125Y-4.1875
X8.125Y-1.9375
X10.5625Y-4.9375
X7.75Y-2.6875
X3.7188Y-4.9375
X13.1875Y-4.9375
X8.78Y-4.6125
X9.25Y-4.9375
X9.72Y-4.6125
X11.125Y-4.9375
X6.4363Y-4.6125
X6.9062Y-4.9375
X7.3762Y-4.6125
X7.0Y-2.6875
X13.375Y-4.9375
X6.625Y-4.1875
X8.875Y-1.9375
X13.1875Y-3.4375
X4.9375Y-4.9375
X8.5938Y-3.4375
X11.5Y-2.6875
X11.5938Y-4.9375
X12.25Y-2.6875
X4.0Y-4.9375
X3.8125Y-3.4375
X4.375Y-1.9375
X3.625Y-1.9375
X7.655Y-3.8625
X8.125Y-4.1875
X8.595Y-3.8625
X4.0Y-2.6875
X2.9688Y-3.4375
X5.875Y-1.9375
X3.0625Y-3.4375
X11.875Y-4.9375
X6.2488Y-4.6125
X6.7188Y-4.9375
X7.1887Y-4.6125
X4.0938Y-4.9375
X10.0Y-2.6875
X5.875Y-4.1875
X3.25Y-2.6875
X11.875Y-1.9375
X12.4375Y-3.4375
X4.5625Y-3.4375
X4.6562Y-4.9375
X12.625Y-4.1875
X5.125Y-4.1875
X6.25Y-2.6875
X5.125Y-4.9375
T0
M30
