G04 #@! TF.GenerationSoftware,KiCad,Pcbnew,(5.1.2-1)-1*
G04 #@! TF.CreationDate,2019-07-07T19:45:46+02:00*
G04 #@! TF.ProjectId,kicad_pcb,6b696361-645f-4706-9362-2e6b69636164,rev?*
G04 #@! TF.SameCoordinates,Original*
G04 #@! TF.FileFunction,Legend,Top*
G04 #@! TF.FilePolarity,Positive*
%FSLAX46Y46*%
G04 Gerber Fmt 4.6, Leading zero omitted, Abs format (unit mm)*
G04 Created by KiCad (PCBNEW (5.1.2-1)-1) date 2019-07-07 19:45:46*
%MOMM*%
%LPD*%
G04 APERTURE LIST*
%ADD10C,2.501900*%
%ADD11C,7.103300*%
%ADD12C,7.102240*%
%ADD13C,1.102000*%
%ADD14C,4.089800*%
%ADD15C,1.852000*%
%ADD16O,1.802000X2.802000*%
%ADD17C,3.150000*%
G04 APERTURE END LIST*
%LPC*%
D10*
X345087500Y-93861550D02*
X348887500Y-93861550D01*
X342436550Y-96512500D02*
G75*
G02X345087500Y-93861550I2650950J0D01*
G01*
X345087500Y-99163450D02*
G75*
G02X342436550Y-96512500I0J2650950D01*
G01*
X345087500Y-99163450D02*
X348937500Y-99163450D01*
X63887500Y-93861550D02*
X67687500Y-93861550D01*
X70338450Y-96512500D02*
G75*
G03X67687500Y-93861550I-2650950J0D01*
G01*
X67687500Y-99163450D02*
G75*
G03X70338450Y-96512500I0J2650950D01*
G01*
X63887500Y-99163450D02*
X67687500Y-99163450D01*
D11*
X89087500Y-67912500D03*
D12*
X254387500Y-125212500D03*
X323937500Y-67912500D03*
D13*
X89087500Y-65612500D03*
X86787500Y-67912500D03*
X91387500Y-67912500D03*
X89087500Y-70212500D03*
X87461154Y-66286154D03*
X90713846Y-66286154D03*
X87461154Y-69538846D03*
X90713846Y-69538846D03*
X323937500Y-65612500D03*
X323937500Y-70212500D03*
X325386500Y-70294500D03*
X322465500Y-70294500D03*
X322592500Y-65595500D03*
X325386500Y-65595500D03*
D14*
X96837500Y-87312500D03*
D15*
X91757500Y-87312500D03*
X101917500Y-87312500D03*
D14*
X115887500Y-87312500D03*
D15*
X110807500Y-87312500D03*
X120967500Y-87312500D03*
D14*
X273050000Y-68262500D03*
D15*
X267970000Y-68262500D03*
X278130000Y-68262500D03*
D16*
X78519000Y-41806250D03*
X85819000Y-41806250D03*
X85819000Y-37306250D03*
X78519000Y-37306250D03*
D15*
X78105000Y-49212500D03*
X67945000Y-49212500D03*
D14*
X73025000Y-49212500D03*
D15*
X97155000Y-49212500D03*
X86995000Y-49212500D03*
D14*
X92075000Y-49212500D03*
D15*
X116205000Y-49212500D03*
X106045000Y-49212500D03*
D14*
X111125000Y-49212500D03*
D15*
X135255000Y-49212500D03*
X125095000Y-49212500D03*
D14*
X130175000Y-49212500D03*
X149225000Y-49212500D03*
D15*
X144145000Y-49212500D03*
X154305000Y-49212500D03*
D14*
X168275000Y-49212500D03*
D15*
X163195000Y-49212500D03*
X173355000Y-49212500D03*
D14*
X187325000Y-49212500D03*
D15*
X182245000Y-49212500D03*
X192405000Y-49212500D03*
D14*
X206375000Y-49212500D03*
D15*
X201295000Y-49212500D03*
X211455000Y-49212500D03*
D14*
X225425000Y-49212500D03*
D15*
X220345000Y-49212500D03*
X230505000Y-49212500D03*
D14*
X244475000Y-49212500D03*
D15*
X239395000Y-49212500D03*
X249555000Y-49212500D03*
D14*
X263525000Y-49212500D03*
D15*
X258445000Y-49212500D03*
X268605000Y-49212500D03*
D14*
X282575000Y-49212500D03*
D15*
X277495000Y-49212500D03*
X287655000Y-49212500D03*
D14*
X301625000Y-49212500D03*
D15*
X296545000Y-49212500D03*
X306705000Y-49212500D03*
X325755000Y-49212500D03*
X315595000Y-49212500D03*
D14*
X320675000Y-49212500D03*
D15*
X344805000Y-49212500D03*
X334645000Y-49212500D03*
D14*
X339725000Y-49212500D03*
X82550000Y-68262500D03*
D15*
X77470000Y-68262500D03*
X87630000Y-68262500D03*
D14*
X101600000Y-68262500D03*
D15*
X96520000Y-68262500D03*
X106680000Y-68262500D03*
D14*
X120650000Y-68262500D03*
D15*
X115570000Y-68262500D03*
X125730000Y-68262500D03*
D14*
X139700000Y-68262500D03*
D15*
X134620000Y-68262500D03*
X144780000Y-68262500D03*
X163830000Y-68262500D03*
X153670000Y-68262500D03*
D14*
X158750000Y-68262500D03*
D15*
X182880000Y-68262500D03*
X172720000Y-68262500D03*
D14*
X177800000Y-68262500D03*
D15*
X201930000Y-68262500D03*
X191770000Y-68262500D03*
D14*
X196850000Y-68262500D03*
D15*
X220980000Y-68262500D03*
X210820000Y-68262500D03*
D14*
X215900000Y-68262500D03*
D15*
X240030000Y-68262500D03*
X229870000Y-68262500D03*
D14*
X234950000Y-68262500D03*
D15*
X259080000Y-68262500D03*
X248920000Y-68262500D03*
D14*
X254000000Y-68262500D03*
D15*
X297180000Y-68262500D03*
X287020000Y-68262500D03*
D14*
X292100000Y-68262500D03*
D15*
X316230000Y-68262500D03*
X306070000Y-68262500D03*
D14*
X311150000Y-68262500D03*
D15*
X335280000Y-68262500D03*
X325120000Y-68262500D03*
D14*
X330200000Y-68262500D03*
X342106250Y-57467500D03*
X318293750Y-57467500D03*
D17*
X342106250Y-42227500D03*
X318293750Y-42227500D03*
D15*
X335280000Y-49212500D03*
X325120000Y-49212500D03*
D14*
X330200000Y-49212500D03*
X77787500Y-87312500D03*
D15*
X72707500Y-87312500D03*
X82867500Y-87312500D03*
D14*
X134937500Y-87312500D03*
D15*
X129857500Y-87312500D03*
X140017500Y-87312500D03*
D14*
X153987500Y-87312500D03*
D15*
X148907500Y-87312500D03*
X159067500Y-87312500D03*
D14*
X173037500Y-87312500D03*
D15*
X167957500Y-87312500D03*
X178117500Y-87312500D03*
X197167500Y-87312500D03*
X187007500Y-87312500D03*
D14*
X192087500Y-87312500D03*
D15*
X225742500Y-87312500D03*
X215582500Y-87312500D03*
D14*
X220662500Y-87312500D03*
D15*
X244792500Y-87312500D03*
X234632500Y-87312500D03*
D14*
X239712500Y-87312500D03*
D15*
X263842500Y-87312500D03*
X253682500Y-87312500D03*
D14*
X258762500Y-87312500D03*
D15*
X282892500Y-87312500D03*
X272732500Y-87312500D03*
D14*
X277812500Y-87312500D03*
D15*
X301942500Y-87312500D03*
X291782500Y-87312500D03*
D14*
X296862500Y-87312500D03*
D15*
X320992500Y-87312500D03*
X310832500Y-87312500D03*
D14*
X315912500Y-87312500D03*
D15*
X340042500Y-87312500D03*
X329882500Y-87312500D03*
D14*
X334962500Y-87312500D03*
X73025000Y-106362500D03*
D15*
X67945000Y-106362500D03*
X78105000Y-106362500D03*
X97155000Y-106362500D03*
X86995000Y-106362500D03*
D14*
X92075000Y-106362500D03*
D15*
X116205000Y-106362500D03*
X106045000Y-106362500D03*
D14*
X111125000Y-106362500D03*
D15*
X135255000Y-106362500D03*
X125095000Y-106362500D03*
D14*
X130175000Y-106362500D03*
D15*
X154305000Y-106362500D03*
X144145000Y-106362500D03*
D14*
X149225000Y-106362500D03*
D15*
X173355000Y-106362500D03*
X163195000Y-106362500D03*
D14*
X168275000Y-106362500D03*
D15*
X192405000Y-106362500D03*
X182245000Y-106362500D03*
D14*
X187325000Y-106362500D03*
D15*
X211455000Y-106362500D03*
X201295000Y-106362500D03*
D14*
X206375000Y-106362500D03*
X225425000Y-106362500D03*
D15*
X220345000Y-106362500D03*
X230505000Y-106362500D03*
D14*
X244475000Y-106362500D03*
D15*
X239395000Y-106362500D03*
X249555000Y-106362500D03*
D14*
X263525000Y-106362500D03*
D15*
X258445000Y-106362500D03*
X268605000Y-106362500D03*
D14*
X282575000Y-106362500D03*
D15*
X277495000Y-106362500D03*
X287655000Y-106362500D03*
D14*
X301625000Y-106362500D03*
D15*
X296545000Y-106362500D03*
X306705000Y-106362500D03*
D14*
X320675000Y-106362500D03*
D15*
X315595000Y-106362500D03*
X325755000Y-106362500D03*
D14*
X339725000Y-106362500D03*
D15*
X334645000Y-106362500D03*
X344805000Y-106362500D03*
D14*
X73025000Y-125412500D03*
D15*
X67945000Y-125412500D03*
X78105000Y-125412500D03*
D14*
X206375000Y-125412500D03*
D15*
X201295000Y-125412500D03*
X211455000Y-125412500D03*
X268605000Y-125412500D03*
X258445000Y-125412500D03*
D14*
X263525000Y-125412500D03*
D15*
X287655000Y-125412500D03*
X277495000Y-125412500D03*
D14*
X282575000Y-125412500D03*
D15*
X306705000Y-125412500D03*
X296545000Y-125412500D03*
D14*
X301625000Y-125412500D03*
D15*
X325755000Y-125412500D03*
X315595000Y-125412500D03*
D14*
X320675000Y-125412500D03*
X339725000Y-125412500D03*
D15*
X334645000Y-125412500D03*
X344805000Y-125412500D03*
D14*
X94456250Y-125412500D03*
D15*
X89376250Y-125412500D03*
X99536250Y-125412500D03*
X123348750Y-125412500D03*
X113188750Y-125412500D03*
D14*
X118268750Y-125412500D03*
D15*
X147161250Y-125412500D03*
X137001250Y-125412500D03*
D14*
X142081250Y-125412500D03*
D15*
X82867500Y-68262500D03*
X72707500Y-68262500D03*
D14*
X77787500Y-68262500D03*
X334962500Y-68262500D03*
D15*
X329882500Y-68262500D03*
X340042500Y-68262500D03*
X80486250Y-87312500D03*
X70326250Y-87312500D03*
D14*
X75406250Y-87312500D03*
D15*
X199548750Y-87312500D03*
X189388750Y-87312500D03*
D14*
X194468750Y-87312500D03*
D15*
X223361250Y-87312500D03*
X213201250Y-87312500D03*
D14*
X218281250Y-87312500D03*
X337343750Y-87312500D03*
D15*
X332263750Y-87312500D03*
X342423750Y-87312500D03*
D14*
X187325000Y-117157500D03*
X163512500Y-117157500D03*
D17*
X187325000Y-132397500D03*
X163512500Y-132397500D03*
D15*
X180498750Y-125412500D03*
X170338750Y-125412500D03*
D14*
X175418750Y-125412500D03*
X246856250Y-117157500D03*
X223043750Y-117157500D03*
D17*
X246856250Y-132397500D03*
X223043750Y-132397500D03*
D15*
X240030000Y-125412500D03*
X229870000Y-125412500D03*
D14*
X234950000Y-125412500D03*
M02*
